<svg width="281" height="56" viewBox="0 0 281 56" fill="none" xmlns="http://www.w3.org/2000/svg">
<g clip-path="url(#clip0)">
<path d="M56.0731 33.4421L34.1832 55.29L56.0731 33.4421Z" fill="#1F5F71"/>
<path d="M45.1282 0.709717L1.26898 44.3266L45.1282 0.709717Z" fill="#1F5F71"/>
<path d="M56.0731 33.4421L34.1832 55.29H56.0731V33.4421Z" fill="white"/>
<path d="M12.2139 55.29L56.0731 11.6731V0.709717H45.1281L1.26898 44.3266V55.29H12.2139Z" fill="white"/>
<path d="M1.26898 0.709717V22.5576L23.2382 0.709717H1.26898Z" fill="white"/>
<path d="M1.26898 22.5576L23.2382 0.709717L1.26898 22.5576Z" fill="#1F5F71"/>
<path d="M66.5422 31.7068C73.2837 21.6899 79.47 11.9096 84.9425 2.28707L73.363 2.52369C72.7285 2.52369 72.1733 2.68144 71.6975 2.99693C71.2216 3.31242 70.825 3.62792 70.5078 4.02228C70.1906 4.41665 69.9526 4.88989 69.6354 5.59975C69.3974 6.23073 69.1595 6.70397 69.0802 7.01946C69.0009 7.33496 68.9216 7.8082 68.7629 8.36031H67.8112L67.9698 1.26172C70.9837 1.49834 74.3941 1.57721 78.201 1.57721C81.1355 1.57721 85.4976 1.49834 91.1287 1.26172V2.36594L76.2975 26.58C75.0285 28.8674 74.3941 30.3659 74.3941 31.2336C74.3941 31.549 74.5527 31.7068 74.7906 31.7068C80.6596 31.7068 84.308 31.6279 85.8942 31.3913C86.7666 31.3124 87.7184 30.4448 88.7494 28.9462C89.7804 27.3688 90.4149 25.949 90.5736 24.5293H91.6839L90.5736 32.4166C86.7666 32.3378 83.039 32.3378 79.3907 32.3378C77.1699 32.3378 72.9664 32.3378 66.7009 32.4166V31.7068H66.5422Z" fill="white"/>
<path d="M122.853 18.5352H112.939L108.26 29.4986C108.181 29.6564 108.101 29.8141 108.101 29.9718C108.101 30.4451 108.498 30.7606 109.212 31.0761C109.925 31.3916 110.639 31.4704 111.353 31.4704L111.432 32.2592L101.756 32.338V31.3916H101.836C102.47 31.3916 103.105 31.2338 103.818 30.9972C104.532 30.6817 105.087 30.3662 105.563 29.8141C106.119 29.1831 108.419 24.2141 112.543 14.9859L118.65 1.18311H120.236L131.022 26.5803C131.974 28.7887 132.926 30.1296 134.036 30.6817C134.353 30.8394 134.671 30.9183 134.988 30.9183C135.305 30.9972 135.622 30.9972 135.94 30.9972C136.257 30.9972 136.415 30.9972 136.574 31.0761L136.495 32.338C134.274 32.2592 131.815 32.1803 129.04 32.1803C126.581 32.1803 124.519 32.2592 123.012 32.338L123.091 31.3916C123.091 31.3916 123.408 31.4704 123.964 31.4704C125.153 31.4704 125.946 31.1549 126.422 30.6028C126.66 30.3662 126.739 29.9718 126.739 29.4986C126.739 29.1042 126.66 28.631 126.422 28.0789L126.184 27.369L122.853 18.5352ZM113.494 17.3521H122.377L118.015 6.78311L113.494 17.3521Z" fill="white"/>
<path d="M170.995 24.1351C170.995 25.0027 170.757 25.8703 170.361 26.8168C169.964 27.6844 169.33 28.552 168.537 29.4196C167.743 30.2872 166.554 30.9182 165.126 31.4703C163.619 32.0224 161.954 32.259 159.971 32.259C159.733 32.259 159.099 32.259 157.988 32.259C156.878 32.259 155.371 32.259 153.467 32.1801C151.564 32.1801 149.423 32.1801 147.122 32.1801V31.3914L147.995 31.2337C148.55 31.1548 149.185 30.997 149.819 30.6815C150.454 30.3661 150.85 30.0506 150.85 29.7351C150.85 28.0787 150.85 24.9238 150.85 20.2703C150.85 15.6168 150.85 12.2252 150.85 10.0168C150.85 6.62521 150.85 4.25901 150.85 2.99704C150.771 2.60267 150.216 2.36605 149.264 2.05056L147.916 1.57732V0.709717C149.819 0.709717 152.198 0.709717 155.054 0.709717C157.83 0.709717 159.654 0.709717 160.526 0.709717C161.795 0.709717 162.985 1.02521 164.254 1.57732C165.523 2.12943 166.554 3.07591 167.506 4.25901C168.457 5.44211 168.854 6.86183 168.854 8.36042V8.43929C168.854 10.1745 168.219 11.752 167.03 13.2506C165.84 14.6703 164.174 15.459 162.033 15.5379C167.981 16.2477 170.995 19.0872 170.995 24.1351ZM156.005 16.4844L156.085 28.7097C156.085 29.8139 156.243 30.4449 156.561 30.7604C156.878 31.0759 157.433 31.1548 158.305 31.1548C161.002 31.1548 162.985 30.6027 164.254 29.5773C165.443 28.552 166.078 26.8956 166.078 24.5294C166.078 19.6393 163.857 16.9576 159.416 16.5632L156.005 16.4844ZM156.164 1.89282V15.2224L159.336 14.9858C160.447 14.9069 161.319 14.6703 162.033 14.197C162.747 13.7238 163.223 13.1717 163.54 12.4618C163.857 11.752 164.016 11.121 164.095 10.5689C164.174 10.0168 164.254 9.38577 164.254 8.59704C164.254 7.25619 163.937 5.99422 163.223 4.73225C162.588 3.47028 161.636 2.60267 160.526 2.05056C160.13 1.81394 159.495 1.73507 158.702 1.73507C158.464 1.73507 157.988 1.73507 157.433 1.81394C156.878 1.89282 156.402 1.89282 156.164 1.89282Z" fill="white"/>
<path d="M207.796 24.1351C207.796 25.0027 207.558 25.8703 207.161 26.8168C206.765 27.6844 206.13 28.552 205.337 29.4196C204.544 30.2872 203.354 30.9182 201.927 31.4703C200.42 32.0224 198.754 32.259 196.771 32.259C196.534 32.259 195.899 32.259 194.789 32.259C193.678 32.259 192.171 32.259 190.268 32.1801C188.364 32.1801 186.223 32.1801 183.923 32.1801V31.3914L184.795 31.2337C185.351 31.1548 185.985 30.997 186.62 30.6815C187.254 30.3661 187.651 30.0506 187.651 29.7351C187.651 28.0787 187.651 24.9238 187.651 20.2703C187.651 15.6168 187.651 12.2252 187.651 10.0168C187.651 6.62521 187.651 4.25901 187.651 2.99704C187.571 2.60267 187.016 2.36605 186.064 2.05056L184.716 1.57732V0.709717C186.62 0.709717 188.999 0.709717 191.854 0.709717C194.63 0.709717 196.454 0.709717 197.327 0.709717C198.596 0.709717 199.785 1.02521 201.054 1.57732C202.323 2.12943 203.354 3.07591 204.306 4.25901C205.258 5.44211 205.654 6.86183 205.654 8.36042V8.43929C205.654 10.1745 205.02 11.752 203.83 13.2506C202.64 14.6703 200.975 15.459 198.834 15.5379C204.782 16.2477 207.796 19.0872 207.796 24.1351ZM192.806 16.4844L192.885 28.7097C192.885 29.8139 193.044 30.4449 193.361 30.7604C193.678 31.0759 194.233 31.1548 195.106 31.1548C197.802 31.1548 199.785 30.6027 201.054 29.5773C202.244 28.552 202.878 26.8956 202.878 24.5294C202.878 19.6393 200.658 16.9576 196.216 16.5632L192.806 16.4844ZM192.965 1.89282V15.2224L196.137 14.9858C197.247 14.9069 198.12 14.6703 198.834 14.197C199.547 13.7238 200.023 13.1717 200.34 12.4618C200.658 11.752 200.816 11.121 200.896 10.5689C200.975 10.0168 201.054 9.38577 201.054 8.59704C201.054 7.25619 200.737 5.99422 200.023 4.73225C199.389 3.47028 198.437 2.60267 197.327 2.05056C196.93 1.81394 196.296 1.73507 195.502 1.73507C195.265 1.73507 194.789 1.73507 194.233 1.81394C193.678 1.89282 193.202 1.89282 192.965 1.89282Z" fill="white"/>
<path d="M230.161 3.47014C230.161 3.47014 230.161 4.41662 230.161 6.2307C230.161 8.04479 230.161 10.2532 230.082 12.9349C230.082 15.6166 230.082 18.0617 230.082 20.2701C230.082 24.687 230.082 27.842 230.161 29.7349C230.161 30.6814 231.43 31.1546 233.889 31.1546L233.968 31.9434C232.937 31.9434 231.589 31.8645 230.082 31.8645C226.513 31.8645 223.499 31.9434 221.041 32.1011V31.3124H221.199C223.658 31.3124 224.927 30.918 225.006 30.2082C225.165 29.2617 225.244 20.2701 225.244 3.31239C225.244 2.91803 224.689 2.60253 223.499 2.36591L221.675 2.05042V1.41943C223.182 1.57718 225.244 1.65605 227.624 1.65605C230.161 1.65605 232.144 1.57718 233.572 1.41943V2.36591C231.351 2.52366 230.161 2.91803 230.161 3.47014Z" fill="white"/>
<path d="M272.514 5.36309L265.217 15.5377L268.39 20.2701C270.452 23.4251 272.197 26.0279 273.624 27.9997C274.735 29.4983 275.528 30.3659 276.003 30.6025C276.797 30.918 277.986 31.2335 279.573 31.6279V32.3377C278.066 32.18 275.686 32.18 272.514 32.18C269.103 32.18 266.724 32.2589 265.296 32.3377V31.3913C267.2 31.2335 268.31 30.9969 268.469 30.6025C268.548 30.3659 268.628 30.1293 268.628 29.8927C268.628 29.3406 268.548 28.9462 268.39 28.6307C267.279 26.8955 265.852 24.7659 264.107 22.1631C262.362 19.5603 261.489 18.2983 261.489 18.2983C260.3 19.9546 259.189 21.4532 258.158 22.873C257.127 24.2927 256.334 25.318 255.858 26.0279C255.303 26.7377 254.907 27.3687 254.51 27.842C254.114 28.3152 253.876 28.7096 253.717 28.8673C253.638 29.0251 253.558 29.1828 253.479 29.2617C253.479 29.3406 253.4 29.4194 253.4 29.4983C253.4 30.1293 253.717 30.5237 254.351 30.7603L257.286 31.6279V32.3377C255.779 32.18 254.034 32.18 252.131 32.18C250.227 32.18 248.482 32.2589 246.975 32.3377V31.3913C248.324 31.3124 249.434 30.9969 250.307 30.5237C250.624 30.287 251.02 29.9715 251.576 29.3406L252.527 28.3941L260.934 17.4307L252.686 5.12647C252.131 4.41662 251.179 3.62788 249.751 2.76028C249.593 2.60253 249.276 2.52366 248.8 2.44479C248.403 2.36591 247.927 2.28704 247.451 2.20817C246.975 2.12929 246.658 2.12929 246.579 2.12929V1.41943C248.086 1.57718 250.545 1.65605 253.876 1.65605C257.445 1.65605 259.983 1.57718 261.41 1.41943V2.36591C259.586 2.52366 258.555 2.83915 258.238 3.23352C258.158 3.47014 258.079 3.70676 258.079 4.02225C258.079 4.25887 258.079 4.49549 258.158 4.73211L258.238 5.0476L264.186 14.6701C267.914 9.54338 270.134 6.62507 270.769 5.75746C271.403 4.88986 271.721 4.41662 271.721 4.18C271.721 3.54901 271.403 3.15464 270.769 2.91802L267.834 2.12929V1.41943C269.341 1.57718 271.086 1.65605 272.99 1.65605C274.893 1.65605 276.638 1.57718 278.145 1.41943V2.36591C276.797 2.44479 275.686 2.68141 274.814 3.23352C274.497 3.47014 274.1 3.8645 273.545 4.49549L272.514 5.36309Z" fill="white"/>
<path d="M103.117 51.4038C103.863 51.1475 104.442 50.7513 104.891 50.1561C105.404 49.4756 105.655 48.6318 105.655 47.7183C105.655 46.4792 105.238 45.4549 104.376 44.7666C103.521 44.0037 102.342 43.6824 100.884 43.6824H96.9185H96.6685V43.9324V55.2113V55.4613H96.9185H97.4736H97.7236V55.2113V51.6753H100.884H100.898C101.304 51.6753 101.674 51.6753 102.041 51.6197L104.679 55.2917V55.5401H104.929H105.643H106.135L105.845 55.1428L103.117 51.4038ZM100.884 50.5443H97.7236V44.5767H100.884C102.11 44.5767 103.005 44.8807 103.666 45.3921C104.304 45.8856 104.6 46.5921 104.6 47.5605C104.6 48.6115 104.301 49.3161 103.666 49.8079C103.05 50.2838 102.233 50.5801 101.134 50.6189V50.5443H100.884Z" fill="white" stroke="white" stroke-width="0.5"/>
<path d="M129.448 54.6592V54.4092H129.198H122.31V49.9401H128.246H128.496V49.6901V49.2169V48.9669H128.246H122.31V44.6556H128.96H129.21V44.4056V43.9324V43.6824H128.96H121.505H121.255V43.9324V55.2113V55.4613H121.505H129.198H129.448V55.2113V54.6592Z" fill="white" stroke="white" stroke-width="0.5"/>
<path d="M145.854 55.4613H146.104V55.2113V51.6753H149.264C150.738 51.6753 151.906 51.2674 152.751 50.5956C153.616 49.9073 154.035 48.8813 154.035 47.6394C154.035 46.3976 153.616 45.3715 152.751 44.6832C151.898 44.0051 150.725 43.6824 149.264 43.6824H145.298H145.048V43.9324V55.2113V55.4613H145.298H145.854ZM152.979 47.6394C152.979 48.6904 152.681 49.395 152.045 49.8867C151.393 50.3913 150.505 50.6232 149.264 50.6232H146.104V44.6556H149.264C150.49 44.6556 151.384 44.9596 152.045 45.471C152.684 45.9645 152.979 46.671 152.979 47.6394Z" fill="white" stroke="white" stroke-width="0.5"/>
<path d="M177.697 44.3436L177.697 44.3435L177.689 44.3395C176.704 43.8496 175.714 43.6035 174.564 43.6035C173.419 43.6035 172.346 43.8476 171.431 44.3436C170.519 44.8383 169.772 45.58 169.273 46.4865C168.691 47.399 168.445 48.392 168.445 49.5324C168.445 50.688 168.778 51.6757 169.269 52.5709C169.768 53.4808 170.517 54.2251 171.431 54.7212C172.346 55.2172 173.419 55.4613 174.564 55.4613C175.708 55.4613 176.78 55.2179 177.693 54.7233C178.687 54.2282 179.435 53.4851 179.935 52.5783C180.517 51.6657 180.763 50.6728 180.763 49.5324C180.763 48.3768 180.43 47.3891 179.939 46.4939L179.935 46.4864L179.93 46.4793C179.356 45.5819 178.612 44.8401 177.697 44.3436ZM178.95 52.0849C178.498 52.8344 177.897 53.4337 177.145 53.8851C176.304 54.2635 175.467 54.4901 174.554 54.5669C173.569 54.5653 172.745 54.3392 171.996 53.8924C171.238 53.4401 170.633 52.8384 170.178 52.0849C169.728 51.3395 169.5 50.4386 169.5 49.5324C169.5 48.5492 169.728 47.7269 170.178 46.9799C170.633 46.2263 171.238 45.6247 171.996 45.1724C172.747 44.724 173.575 44.4979 174.564 44.4979C175.476 44.4979 176.383 44.7249 177.133 45.1724C177.891 45.6247 178.496 46.2263 178.95 46.9799C179.4 47.7253 179.628 48.6261 179.628 49.5324C179.628 50.5156 179.401 51.3379 178.95 52.0849Z" fill="white" stroke="white" stroke-width="0.5"/>
<path d="M202.494 51.4038C203.24 51.1475 203.819 50.7513 204.268 50.1561C204.781 49.4756 205.032 48.6319 205.032 47.7183C205.032 46.4792 204.615 45.4549 203.754 44.7666C202.898 44.0037 201.719 43.6824 200.261 43.6824H196.296H196.046V43.9324V55.2113V55.4613H196.296H196.851H197.101V55.2113V51.6753H200.261H200.275C200.681 51.6753 201.051 51.6753 201.419 51.6197L204.056 55.2917V55.5401H204.306H205.02H205.512L205.222 55.1428L202.494 51.4038ZM200.34 50.5443H197.18V44.5767H200.34C201.566 44.5767 202.461 44.8807 203.122 45.3921C203.76 45.8856 204.056 46.5921 204.056 47.5605C204.056 48.6115 203.758 49.3161 203.122 49.8079C202.507 50.2838 201.689 50.5801 200.59 50.6189V50.5443H200.34Z" fill="white" stroke="white" stroke-width="0.5"/>
<path d="M218.491 44.4056V44.6556H218.741H222.615V55.2113V55.4613H222.865H223.42H223.67V55.2113V44.6556H227.623H227.873V44.4056V43.9324V43.6824H227.623H218.741H218.491V43.9324V44.4056Z" fill="white" stroke="white" stroke-width="0.5"/>
<path d="M242.909 55.0456L242.909 55.0457L242.917 55.0492C243.735 55.3743 244.548 55.5356 245.031 55.6156L245.051 55.619H245.072C245.977 55.619 246.72 55.455 247.38 55.2089C248.059 54.9556 248.5 54.609 248.849 54.0885L248.849 54.0887L248.855 54.0784C249.114 53.6493 249.288 53.1319 249.288 52.5296C249.288 51.8602 249.12 51.2468 248.756 50.7954C248.407 50.3607 247.889 50.0189 247.371 49.8472C247.124 49.7654 246.819 49.6844 246.484 49.5962L246.446 49.5863C246.118 49.5 245.759 49.4054 245.381 49.2928C245.166 49.2287 244.97 49.1705 244.788 49.1168C244.297 48.9719 243.914 48.8586 243.571 48.7453C243.202 48.5975 242.839 48.3786 242.552 48.0931C242.295 47.8382 242.15 47.4374 242.15 46.9296C242.15 46.3118 242.419 45.8261 242.928 45.3899C243.507 44.9606 244.241 44.7345 245.31 44.7345C245.76 44.7345 246.292 44.8094 246.828 44.9616C247.354 45.111 247.806 45.3353 248.265 45.6393L248.5 45.7951L248.626 45.5433L248.864 45.07L248.956 44.8885L248.797 44.7621C248.387 44.4362 247.878 44.0964 247.194 43.9264C246.544 43.7646 245.968 43.6824 245.31 43.6824C244.407 43.6824 243.66 43.8456 243.071 44.0968C242.475 44.3505 242.039 44.6955 241.692 45.2129L241.692 45.2127L241.685 45.2229C241.427 45.6521 241.253 46.1695 241.253 46.7718C241.253 47.4659 241.514 48.0722 241.863 48.506C242.209 48.936 242.719 49.2751 243.232 49.4486C243.488 49.5738 243.798 49.6753 244.129 49.7723C244.287 49.8184 244.442 49.8616 244.602 49.906C244.804 49.9621 245.012 50.0199 245.238 50.0874C245.453 50.1516 245.65 50.2098 245.832 50.2636C246.326 50.4094 246.711 50.5232 247.055 50.6373C247.484 50.7794 247.769 50.9901 248.068 51.2871C248.331 51.5487 248.47 51.8757 248.47 52.3718C248.47 52.9886 248.202 53.4738 247.694 53.9095C247.196 54.2593 246.385 54.488 245.31 54.488C244.607 54.488 243.861 54.4089 243.28 54.1198L243.264 54.1119L243.247 54.1064C242.585 53.8869 242.142 53.5219 241.759 53.141L241.562 52.9452L241.388 53.1616L241.07 53.556L240.942 53.7159L241.073 53.8732C241.513 54.3973 242.201 54.7327 242.909 55.0456Z" fill="white" stroke="white" stroke-width="0.5"/>
</g>
<defs>
<clipPath id="clip0">
<rect width="281" height="56" fill="white"/>
</clipPath>
</defs>
</svg>
