<svg width="160" height="32" viewBox="0 0 160 32" fill="none" xmlns="http://www.w3.org/2000/svg">
<g clip-path="url(#clip0)">
<path d="M31.9278 19.1099L19.4637 31.5944L31.9278 19.1099Z" fill="#1F5F71"/>
<path d="M25.6957 0.40564L0.722534 25.3296L25.6957 0.40564Z" fill="#1F5F71"/>
<path d="M31.9278 19.1099L19.4637 31.5944H31.9278V19.1099Z" fill="#1F5F71"/>
<path d="M6.95454 31.5944L31.9277 6.67043V0.40564H25.6957L0.722534 25.3296V31.5944H6.95454Z" fill="#4AA7C3"/>
<path d="M0.722534 0.40564V12.8901L13.2317 0.40564H0.722534Z" fill="#1F5F71"/>
<path d="M0.722534 12.8901L13.2317 0.40564L0.722534 12.8901Z" fill="#1F5F71"/>
<path d="M37.8888 18.1183C41.7273 12.3944 45.2498 6.80564 48.3658 1.30705L41.7725 1.44226C41.4112 1.44226 41.0951 1.5324 40.8242 1.71268C40.5532 1.89296 40.3274 2.07324 40.1468 2.2986C39.9661 2.52395 39.8307 2.79437 39.65 3.2C39.5145 3.56057 39.3791 3.83099 39.3339 4.01127C39.2887 4.19155 39.2436 4.46198 39.1533 4.77747H38.6113L38.7017 0.72113C40.4177 0.856342 42.3596 0.901412 44.5272 0.901412C46.1981 0.901412 48.6819 0.856342 51.8882 0.72113V1.35212L43.4434 15.1887C42.7209 16.4958 42.3596 17.3521 42.3596 17.8479C42.3596 18.0282 42.4499 18.1183 42.5854 18.1183C45.9272 18.1183 48.0045 18.0732 48.9077 17.938C49.4045 17.893 49.9464 17.3972 50.5334 16.5408C51.1205 15.6394 51.4818 14.8282 51.5721 14.0169H52.2043L51.5721 18.5239C49.4045 18.4789 47.282 18.4789 45.2046 18.4789C43.9402 18.4789 41.5467 18.4789 37.9791 18.5239V18.1183H37.8888Z" fill="#565F64"/>
<path d="M69.952 10.5916H64.3071L61.6427 16.8563C61.5975 16.9465 61.5523 17.0366 61.5523 17.1268C61.5523 17.3972 61.7781 17.5775 62.1846 17.7577C62.591 17.938 62.9974 17.9831 63.4039 17.9831L63.449 18.4338L57.9396 18.4789V17.938H57.9847C58.346 17.938 58.7073 17.8479 59.1137 17.7127C59.5202 17.5324 59.8363 17.3521 60.1072 17.0366C60.4233 16.6761 61.733 13.8366 64.0813 8.56338L67.5585 0.676056H68.4617L74.6034 15.1887C75.1453 16.4507 75.6873 17.2169 76.3195 17.5324C76.5001 17.6225 76.6808 17.6676 76.8614 17.6676C77.042 17.7127 77.2227 17.7127 77.4033 17.7127C77.584 17.7127 77.6743 17.7127 77.7646 17.7577L77.7194 18.4789C76.455 18.4338 75.055 18.3887 73.4744 18.3887C72.0745 18.3887 70.9004 18.4338 70.0423 18.4789L70.0875 17.938C70.0875 17.938 70.2681 17.9831 70.5842 17.9831C71.2616 17.9831 71.7132 17.8028 71.9842 17.4873C72.1197 17.3521 72.1648 17.1268 72.1648 16.8563C72.1648 16.631 72.1197 16.3606 71.9842 16.0451L71.8487 15.6394L69.952 10.5916ZM64.6232 9.91549H69.681L67.1973 3.87606L64.6232 9.91549Z" fill="#565F64"/>
<path d="M97.3638 13.7916C97.3638 14.2873 97.2283 14.7831 97.0025 15.3239C96.7767 15.8197 96.4154 16.3155 95.9638 16.8113C95.5122 17.307 94.8349 17.6676 94.022 17.9831C93.1639 18.2986 92.2156 18.4338 91.0866 18.4338C90.9511 18.4338 90.5898 18.4338 89.9576 18.4338C89.3254 18.4338 88.4673 18.4338 87.3835 18.3887C86.2997 18.3887 85.0804 18.3887 83.7708 18.3887V17.938L84.2675 17.8479C84.5836 17.8028 84.9449 17.7127 85.3062 17.5324C85.6675 17.3521 85.8933 17.1718 85.8933 16.9916C85.8933 16.0451 85.8933 14.2423 85.8933 11.5831C85.8933 8.92395 85.8933 6.98592 85.8933 5.72395C85.8933 3.78592 85.8933 2.43381 85.8933 1.71268C85.8481 1.48733 85.532 1.35212 84.9901 1.17184L84.2223 0.901414V0.40564C85.3062 0.40564 86.661 0.40564 88.2867 0.40564C89.8673 0.40564 90.906 0.40564 91.4027 0.40564C92.1253 0.40564 92.8027 0.585921 93.5252 0.901414C94.2478 1.21691 94.8349 1.75775 95.3768 2.43381C95.9187 3.10986 96.1445 3.92113 96.1445 4.77747V4.82254C96.1445 5.81409 95.7832 6.7155 95.1058 7.57184C94.4284 8.3831 93.4801 8.83381 92.2608 8.87888C95.6477 9.28451 97.3638 10.907 97.3638 13.7916ZM88.8286 9.41972L88.8738 16.4056C88.8738 17.0366 88.9641 17.3972 89.1447 17.5775C89.3254 17.7577 89.6415 17.8028 90.1383 17.8028C91.6737 17.8028 92.8027 17.4873 93.5252 16.9014C94.2026 16.3155 94.5639 15.369 94.5639 14.0169C94.5639 11.2225 93.2994 9.69015 90.7705 9.46479L88.8286 9.41972ZM88.9189 1.0817V8.6986L90.7253 8.56339C91.3576 8.51831 91.8543 8.3831 92.2608 8.11268C92.6672 7.84226 92.9381 7.52677 93.1188 7.12113C93.2994 6.7155 93.3897 6.35493 93.4349 6.03944C93.4801 5.72395 93.5252 5.36339 93.5252 4.91268C93.5252 4.14648 93.3446 3.42536 92.9382 2.70423C92.5769 1.9831 92.035 1.48733 91.4027 1.17184C91.1769 1.03663 90.8157 0.991555 90.3641 0.991555C90.2286 0.991555 89.9576 0.991555 89.6415 1.03663C89.3254 1.0817 89.0544 1.0817 88.9189 1.0817Z" fill="#565F64"/>
<path d="M118.318 13.7916C118.318 14.2873 118.182 14.7831 117.957 15.3239C117.731 15.8197 117.369 16.3155 116.918 16.8113C116.466 17.307 115.789 17.6676 114.976 17.9831C114.118 18.2986 113.17 18.4338 112.041 18.4338C111.905 18.4338 111.544 18.4338 110.912 18.4338C110.279 18.4338 109.421 18.4338 108.338 18.3887C107.254 18.3887 106.034 18.3887 104.725 18.3887V17.938L105.222 17.8479C105.538 17.8028 105.899 17.7127 106.26 17.5324C106.621 17.3521 106.847 17.1718 106.847 16.9916C106.847 16.0451 106.847 14.2423 106.847 11.5831C106.847 8.92395 106.847 6.98592 106.847 5.72395C106.847 3.78592 106.847 2.43381 106.847 1.71268C106.802 1.48733 106.486 1.35212 105.944 1.17184L105.176 0.901414V0.40564C106.26 0.40564 107.615 0.40564 109.241 0.40564C110.821 0.40564 111.86 0.40564 112.357 0.40564C113.079 0.40564 113.757 0.585921 114.479 0.901414C115.202 1.21691 115.789 1.75775 116.331 2.43381C116.873 3.10986 117.098 3.92113 117.098 4.77747V4.82254C117.098 5.81409 116.737 6.7155 116.06 7.57184C115.382 8.3831 114.434 8.83381 113.215 8.87888C116.602 9.28451 118.318 10.907 118.318 13.7916ZM109.783 9.41972L109.828 16.4056C109.828 17.0366 109.918 17.3972 110.099 17.5775C110.279 17.7577 110.596 17.8028 111.092 17.8028C112.628 17.8028 113.757 17.4873 114.479 16.9014C115.157 16.3155 115.518 15.369 115.518 14.0169C115.518 11.2225 114.253 9.69015 111.725 9.46479L109.783 9.41972ZM109.873 1.0817V8.6986L111.679 8.56339C112.312 8.51831 112.808 8.3831 113.215 8.11268C113.621 7.84226 113.892 7.52677 114.073 7.12113C114.253 6.7155 114.344 6.35493 114.389 6.03944C114.434 5.72395 114.479 5.36339 114.479 4.91268C114.479 4.14648 114.299 3.42536 113.892 2.70423C113.531 1.9831 112.989 1.48733 112.357 1.17184C112.131 1.03663 111.77 0.991555 111.318 0.991555C111.183 0.991555 110.912 0.991555 110.596 1.03663C110.279 1.0817 110.008 1.0817 109.873 1.0817Z" fill="#565F64"/>
<path d="M131.053 1.98311C131.053 1.98311 131.053 2.52396 131.053 3.56058C131.053 4.5972 131.053 5.85917 131.008 7.39156C131.008 8.92396 131.008 10.3211 131.008 11.5831C131.008 14.1071 131.008 15.9099 131.053 16.9916C131.053 17.5324 131.775 17.8028 133.175 17.8028L133.22 18.2535C132.633 18.2535 131.866 18.2085 131.008 18.2085C128.975 18.2085 127.259 18.2535 125.859 18.3437V17.893H125.95C127.35 17.893 128.072 17.6676 128.117 17.262C128.208 16.7211 128.253 11.5831 128.253 1.89297C128.253 1.66762 127.937 1.48734 127.259 1.35212L126.221 1.17184V0.811279C127.079 0.90142 128.253 0.946491 129.608 0.946491C131.053 0.946491 132.182 0.90142 132.995 0.811279V1.35212C131.73 1.44227 131.053 1.66762 131.053 1.98311Z" fill="#565F64"/>
<path d="M155.168 3.0648L151.013 8.87888L152.82 11.5831C153.994 13.3859 154.987 14.8732 155.8 16C156.432 16.8563 156.884 17.3521 157.155 17.4873C157.607 17.6676 158.284 17.8479 159.187 18.0732V18.4789C158.329 18.3887 156.974 18.3887 155.168 18.3887C153.226 18.3887 151.871 18.4338 151.058 18.4789V17.938C152.142 17.8479 152.775 17.7127 152.865 17.4873C152.91 17.3521 152.955 17.2169 152.955 17.0817C152.955 16.7662 152.91 16.5409 152.82 16.3606C152.187 15.369 151.375 14.1521 150.381 12.6648C149.388 11.1775 148.891 10.4563 148.891 10.4563C148.213 11.4028 147.581 12.2592 146.994 13.0704C146.407 13.8817 145.955 14.4676 145.684 14.8732C145.368 15.2789 145.143 15.6394 144.917 15.9099C144.691 16.1803 144.555 16.4056 144.465 16.4958C144.42 16.5859 144.375 16.6761 144.33 16.7211C144.33 16.7662 144.285 16.8113 144.285 16.8563C144.285 17.2169 144.465 17.4423 144.826 17.5775L146.497 18.0732V18.4789C145.639 18.3887 144.646 18.3887 143.562 18.3887C142.478 18.3887 141.485 18.4338 140.627 18.4789V17.938C141.394 17.893 142.027 17.7127 142.523 17.4423C142.704 17.3071 142.93 17.1268 143.246 16.7662L143.788 16.2254L148.575 9.96057L143.878 2.92959C143.562 2.52395 143.02 2.07325 142.207 1.57748C142.117 1.48734 141.936 1.44227 141.665 1.39719C141.439 1.35212 141.169 1.30705 140.898 1.26198C140.627 1.21691 140.446 1.21691 140.401 1.21691V0.811279C141.259 0.90142 142.659 0.946491 144.555 0.946491C146.588 0.946491 148.033 0.90142 148.846 0.811279V1.35212C147.807 1.44227 147.22 1.62255 147.039 1.8479C146.994 1.98311 146.949 2.11832 146.949 2.2986C146.949 2.43381 146.949 2.56903 146.994 2.70424L147.039 2.88452L150.426 8.38311C152.549 5.45353 153.813 3.78593 154.174 3.29015C154.536 2.79438 154.716 2.52396 154.716 2.38874C154.716 2.02818 154.536 1.80283 154.174 1.66762L152.504 1.21691V0.811279C153.362 0.90142 154.355 0.946491 155.439 0.946491C156.523 0.946491 157.516 0.90142 158.374 0.811279V1.35212C157.607 1.39719 156.974 1.53241 156.478 1.8479C156.297 1.98311 156.071 2.20846 155.755 2.56903L155.168 3.0648Z" fill="#565F64"/>
<path d="M60.2333 31.5356L58.6456 29.3514C59.0908 29.2079 59.4299 28.9814 59.6905 28.6347C59.9763 28.2543 60.1169 27.7817 60.1169 27.2676C60.1169 26.5693 59.8831 25.9973 59.4042 25.6138C58.9275 25.1869 58.268 25.0042 57.4429 25.0042H55.1849H55.0849V25.1042V31.5493V31.6493H55.1849H55.501H55.601V31.5493V29.4859H57.4429H57.4486C57.691 29.4859 57.9067 29.4859 58.121 29.4506L59.646 31.5814V31.5944V31.6944H59.746H60.1524H60.3487L60.2333 31.5356ZM57.4429 28.9253H55.601V25.4296H57.4429C58.1482 25.4296 58.6671 25.6052 59.0524 25.9043C59.4286 26.1963 59.6008 26.6142 59.6008 27.1775C59.6008 27.7873 59.4277 28.2043 59.0524 28.4956C58.6855 28.7805 58.1975 28.9533 57.5429 28.9692V28.9253H57.4429Z" fill="#565F64" stroke="#565F64" stroke-width="0.2"/>
<path d="M73.6648 31.2338V31.1338H73.5648H69.6004V28.4944H73.0229H73.1229V28.3944V28.1239V28.0239H73.0229H69.6004V25.4746H73.4293H73.5293V25.3746V25.1042V25.0042H73.4293H69.1843H69.0843V25.1042V31.5493V31.6493H69.1843H73.5648H73.6648V31.5493V31.2338Z" fill="#565F64" stroke="#565F64" stroke-width="0.2"/>
<path d="M83.0483 31.6493H83.1483V31.5493V29.4859H84.9901C85.8218 29.4859 86.4771 29.2551 86.9492 28.8781C87.4296 28.4946 87.6642 27.922 87.6642 27.2225C87.6642 26.5231 87.4296 25.9505 86.9492 25.5669C86.4739 25.1874 85.8166 25.0042 84.9901 25.0042H82.7322H82.6322V25.1042V31.5493V31.6493H82.7322H83.0483ZM87.1481 27.2225C87.1481 27.8323 86.975 28.2494 86.5997 28.5407C86.2179 28.8371 85.7016 28.9704 84.9901 28.9704H83.1483V25.4746H84.9901C85.6954 25.4746 86.2144 25.6503 86.5997 25.9494C86.9759 26.2414 87.1481 26.6593 87.1481 27.2225Z" fill="#565F64" stroke="#565F64" stroke-width="0.2"/>
<path d="M101.16 25.3769L101.16 25.3769L101.157 25.3753C100.601 25.0982 100.044 24.9591 99.396 24.9591C98.7497 24.9591 98.1457 25.0974 97.6321 25.3769C97.1195 25.656 96.6998 26.0744 96.4197 26.5857C96.0929 27.0994 95.9542 27.6588 95.9542 28.3042C95.9542 28.9557 96.1411 29.513 96.418 30.0198C96.6982 30.5324 97.1185 30.9519 97.6321 31.2315C98.1457 31.5111 98.7497 31.6493 99.396 31.6493C100.042 31.6493 100.645 31.5114 101.158 31.2323C101.717 30.9531 102.137 30.5342 102.417 30.0227C102.744 29.509 102.883 28.9496 102.883 28.3042C102.883 27.6527 102.696 27.0955 102.419 26.5887L102.419 26.5885L102.416 26.5828C102.092 26.0752 101.674 25.6567 101.16 25.3769ZM101.93 29.7851C101.668 30.2201 101.32 30.5679 100.885 30.8296C100.401 31.0485 99.9181 31.1797 99.3918 31.2239C98.8233 31.2233 98.3458 31.0923 97.9119 30.8325C97.4744 30.5705 97.1249 30.2217 96.8625 29.7851C96.6019 29.3517 96.4703 28.829 96.4703 28.3042C96.4703 27.7351 96.6015 27.2574 96.8625 26.8233C97.1249 26.3867 97.4744 26.0379 97.9119 25.7759C98.3469 25.5155 98.8257 25.3845 99.396 25.3845C99.922 25.3845 100.446 25.5158 100.88 25.7759C101.318 26.0379 101.667 26.3867 101.93 26.8233C102.19 27.2568 102.322 27.7794 102.322 28.3042C102.322 28.8733 102.19 29.3511 101.93 29.7851Z" fill="#565F64" stroke="#565F64" stroke-width="0.2"/>
<path d="M116.818 31.5356L115.23 29.3514C115.676 29.2079 116.015 28.9814 116.275 28.6347C116.561 28.2543 116.702 27.7817 116.702 27.2676C116.702 26.5693 116.468 25.9973 115.989 25.6138C115.512 25.1869 114.853 25.0042 114.028 25.0042H111.77H111.67V25.1042V31.5493V31.6493H111.77H112.086H112.186V31.5493V29.4859H114.028H114.033C114.276 29.4859 114.492 29.4859 114.706 29.4506L116.231 31.5814V31.5944V31.6944H116.331H116.737H116.934L116.818 31.5356ZM114.073 28.9253H112.231V25.4296H114.073C114.778 25.4296 115.297 25.6052 115.682 25.9043C116.059 26.1963 116.231 26.6142 116.231 27.1775C116.231 27.7873 116.058 28.2043 115.682 28.4956C115.315 28.7805 114.827 28.9533 114.173 28.9692V28.9253H114.073Z" fill="#565F64" stroke="#565F64" stroke-width="0.2"/>
<path d="M124.45 25.3746V25.4746H124.55H126.798V31.5493V31.6493H126.898H127.214H127.314V31.5493V25.4746H129.608H129.708V25.3746V25.1042V25.0042H129.608H124.55H124.45V25.1042V25.3746Z" fill="#565F64" stroke="#565F64" stroke-width="0.2"/>
<path d="M138.328 31.4154L138.328 31.4154L138.332 31.4168C138.793 31.601 139.252 31.6925 139.526 31.7381L139.534 31.7394H139.543C140.052 31.7394 140.471 31.6468 140.842 31.5077C141.221 31.3658 141.465 31.1731 141.658 30.8837L141.658 30.8838L141.661 30.8797C141.804 30.6404 141.901 30.3524 141.901 30.0169C141.901 29.641 141.807 29.3011 141.608 29.0529C141.414 28.8114 141.127 28.6206 140.839 28.5248C140.7 28.4786 140.527 28.4327 140.336 28.3822L140.314 28.3764C140.128 28.3272 139.922 28.273 139.707 28.2084C139.585 28.1719 139.473 28.1387 139.37 28.108C139.089 28.025 138.87 27.9599 138.674 27.8948C138.459 27.8086 138.247 27.6805 138.078 27.5123C137.922 27.3563 137.836 27.1148 137.836 26.8169C137.836 26.448 137.998 26.159 138.296 25.9035C138.635 25.6507 139.063 25.5197 139.678 25.5197C139.939 25.5197 140.246 25.5632 140.554 25.6511C140.858 25.7379 141.12 25.8681 141.384 26.0438L141.478 26.1065L141.529 26.0053L141.664 25.7349L141.701 25.6625L141.637 25.612C141.406 25.4275 141.122 25.2375 140.741 25.1424C140.373 25.0506 140.049 25.0042 139.678 25.0042C139.169 25.0042 138.749 25.0966 138.42 25.2376C138.087 25.3797 137.846 25.5719 137.653 25.8599L137.653 25.8599L137.651 25.864C137.507 26.1032 137.411 26.3913 137.411 26.7268C137.411 27.1125 137.555 27.4496 137.749 27.6907C137.941 27.9303 138.225 28.1201 138.511 28.2166C138.654 28.287 138.828 28.3445 139.018 28.4002C139.106 28.426 139.194 28.4507 139.285 28.4761C139.401 28.5084 139.521 28.5419 139.65 28.5803C139.772 28.6168 139.883 28.65 139.987 28.6807C140.268 28.7642 140.489 28.8295 140.685 28.8949C140.937 28.9788 141.105 29.1035 141.278 29.2764C141.437 29.4351 141.52 29.6336 141.52 29.9268C141.52 30.2953 141.359 30.584 141.062 30.8394C140.768 31.0468 140.296 31.1789 139.678 31.1789C139.276 31.1789 138.844 31.1337 138.504 30.964L138.497 30.9609L138.491 30.9586C138.105 30.8303 137.847 30.6168 137.626 30.3968L137.547 30.318L137.478 30.4051L137.297 30.6304L137.246 30.6942L137.298 30.757C137.541 31.0479 137.924 31.2361 138.328 31.4154Z" fill="#565F64" stroke="#565F64" stroke-width="0.2"/>
</g>
<defs>
<clipPath id="clip0">
<rect width="160" height="32" fill="white"/>
</clipPath>
</defs>
</svg>
