<svg width="86" height="86" viewBox="0 0 86 86" fill="none" xmlns="http://www.w3.org/2000/svg">
<g clip-path="url(#clip0)">
<path d="M15.4139 35.1514C15.1324 34.5867 14.6871 34.1209 14.1344 33.7712C13.5577 33.418 12.877 33.1706 12.0991 33.0239C11.3075 32.8806 10.393 32.8158 9.33358 32.8055L4.44235 32.809C3.93395 32.8158 3.43578 33.2116 3.31636 33.7029L0.0254002 48.0371C-0.0940229 48.5216 0.225007 48.9277 0.733409 48.9277H3.07581C3.58421 48.9277 4.08749 48.5336 4.20009 48.0371L5.00364 44.5568C5.11112 44.0723 5.6127 43.6679 6.12622 43.6679H6.79669C9.66114 43.6645 11.879 43.0793 13.4724 41.9073C15.0744 40.7335 15.8643 39.1827 15.8643 37.2617C15.8626 36.4206 15.7244 35.7143 15.4139 35.1514ZM10.3623 39.8344C9.65431 40.3531 8.66993 40.6124 7.40063 40.6124H6.8274C6.31729 40.6124 6.00509 40.2098 6.11598 39.7184L6.82058 36.6748C6.91953 36.1869 7.43305 35.7826 7.93633 35.786L8.70405 35.7809C9.59972 35.7809 10.2838 35.9361 10.7411 36.2364C11.1932 36.5332 11.4201 37.0058 11.4167 37.6319C11.4303 38.5839 11.0669 39.3158 10.3623 39.8344Z" fill="white"/>
<path d="M82.1885 33.9281L82.0418 33.9724L81.8456 33.9997L81.605 33.9622L81.4822 33.8428L81.4259 33.6551L81.4225 33.3736V32.3312H82.2056V32.0088H81.4225V31.3588H81.0352V32.0088H80.7725V32.3312H81.0352V33.5442L81.2161 34.1447L81.7483 34.3358L81.9718 34.317L82.209 34.271V33.9281H82.1885Z" fill="white"/>
<path d="M85.8207 32.1743L85.2611 31.944L84.8482 32.0276L84.4285 32.3108L84.1846 32.0395L83.7888 31.9457L83.4083 32.0293L83.0484 32.2613V32.0088H82.6679V34.2864H83.0466V32.5854L83.3657 32.3875L83.683 32.3091L83.9423 32.3551L84.0703 32.4865L84.1266 32.7049L84.1453 32.9864V34.2881H84.5258V32.8311L84.519 32.71L84.5121 32.5991L84.8363 32.3927L85.157 32.3125L85.4078 32.3585L85.5443 32.4899L85.5921 32.71L85.6177 32.9881V34.2898H85.9998V32.8106L85.8207 32.1743Z" fill="white"/>
<path d="M26.7096 37.2003C25.8259 36.7021 24.4304 36.453 22.523 36.453C21.5796 36.453 20.6395 36.5264 19.6893 36.6731C18.9881 36.7806 18.9198 36.801 18.4882 36.8949C17.5977 37.0894 17.4578 37.9782 17.4578 37.9782L17.1712 39.1571C17.0091 39.9094 17.4424 39.8804 17.6233 39.8173C18.0122 39.7013 18.2289 39.5819 19.0239 39.4045C19.7831 39.2321 20.5832 39.1025 21.2179 39.111C22.1545 39.111 22.871 39.21 23.3487 39.4113C23.8196 39.616 24.055 39.9675 24.055 40.4759L24.0141 40.8068L23.6763 41.015C22.3473 41.0986 21.3868 41.2214 20.2216 41.3903C19.0819 41.549 18.0822 41.827 17.2513 42.2075C16.3591 42.5999 15.6971 43.1271 15.2348 43.7975C14.7878 44.4714 14.5643 45.2886 14.5643 46.2474C14.5643 47.1499 14.8885 47.8954 15.518 48.4721C16.1509 49.0385 16.9869 49.3149 17.9866 49.3149C18.6196 49.3115 19.1092 49.262 19.4573 49.1784L20.5918 48.7877L21.5523 48.2554L22.436 47.672L22.4479 47.689L22.3592 48.0643L22.3541 48.0797V48.0831C22.2586 48.5403 22.535 48.9157 22.9802 48.96L22.9888 48.9703H23.0297H24.8262H25.164L25.1947 48.9566C25.6621 48.902 26.1006 48.5267 26.203 48.0797L27.9107 40.6874L27.9994 40.0852L28.0404 39.5205C28.0472 38.473 27.5951 37.6967 26.7096 37.2003ZM22.9325 45.5121L22.5674 45.9932L21.6461 46.4692C21.2128 46.6449 20.8016 46.7336 20.4212 46.7336C19.8445 46.7336 19.3924 46.65 19.087 46.4794L18.6349 45.6008C18.6349 45.1248 18.7441 44.7478 18.9779 44.4578L19.9708 43.7822C20.3956 43.6389 20.9142 43.5177 21.5147 43.4341C22.0504 43.3676 23.1082 43.2465 23.2464 43.2431L23.4085 43.528C23.376 43.69 23.0758 44.9457 22.9325 45.5121Z" fill="white"/>
<path d="M69.255 37.2105C68.3662 36.7123 66.9723 36.4615 65.0701 36.4615C64.1266 36.4615 63.1849 36.5349 62.238 36.6867C61.5351 36.7891 61.4652 36.8113 61.0319 36.9034C60.143 37.0962 60.0048 37.9885 60.0048 37.9885L59.7182 39.1656C59.5578 39.918 59.9809 39.8839 60.1788 39.8259C60.5695 39.7099 60.7794 39.5956 61.5676 39.4113C62.3233 39.2407 63.1303 39.1144 63.7667 39.1179C64.6999 39.1179 65.4164 39.2185 65.8924 39.4198C66.3667 39.6246 66.5987 39.9794 66.5987 40.4827L66.5629 40.812L66.2285 41.0252C64.8858 41.1054 63.9236 41.2282 62.7703 41.3971C61.6341 41.5558 60.6309 41.8322 59.7984 42.2143C58.9095 42.6084 58.2391 43.1356 57.7818 43.8078C57.3297 44.4817 57.1097 45.2972 57.1097 46.2474C57.1097 47.1567 57.4304 47.9023 58.0685 48.4755C58.7048 49.0402 59.5322 49.3234 60.532 49.3234C61.1615 49.3166 61.6512 49.2757 62.0009 49.1852L63.132 48.7997L64.101 48.2674L64.9779 47.6771L64.9933 47.6959L64.9131 48.0746L64.9046 48.0814L64.908 48.0882C64.8022 48.5455 65.0803 48.9242 65.5307 48.9651L65.5341 48.9737H65.5751C65.8702 48.9737 66.8904 48.9737 67.3766 48.9737H67.7076L67.7434 48.9617C68.2058 48.9054 68.6425 48.5301 68.7398 48.078L70.4526 40.696L70.5431 40.0903L70.5925 39.5239C70.5942 38.4798 70.1473 37.707 69.255 37.2105ZM65.4863 45.5224L65.1059 46.0086L64.1932 46.4811C63.7598 46.6552 63.347 46.7456 62.9733 46.7456C62.3779 46.7456 61.9378 46.6603 61.6409 46.4897L61.1837 45.6145C61.1837 45.1368 61.2946 44.7632 61.5181 44.468C61.745 44.1899 62.0913 43.9613 62.5212 43.7941C62.9409 43.6508 63.4596 43.5348 64.0635 43.4478C64.5958 43.3813 65.6501 43.2567 65.7866 43.255L65.9521 43.5399C65.9282 43.702 65.6262 44.9525 65.4863 45.5224Z" fill="white"/>
<path d="M57.9525 35.2042C57.659 34.6361 57.2189 34.1772 56.6627 33.8189C56.0929 33.464 55.4173 33.215 54.6274 33.0717C53.8511 32.9335 52.9247 32.8584 51.8721 32.8567L46.974 32.8601C46.4639 32.8686 45.9743 33.2644 45.8566 33.7507L42.5622 48.0917C42.4428 48.5779 42.7704 48.9805 43.2685 48.9805L45.6143 48.9771C46.1125 48.9805 46.6226 48.5813 46.7403 48.09L47.5336 44.6079C47.6496 44.1234 48.1529 43.7157 48.6596 43.7191H49.3301C52.198 43.7191 54.4209 43.1288 56.0212 41.9601C57.6027 40.7779 58.4028 39.2305 58.4028 37.3078C58.3943 36.4701 58.2493 35.7621 57.9525 35.2042ZM52.9008 39.8941C52.1945 40.4025 51.2085 40.6618 49.946 40.6618H49.3625C48.8592 40.667 48.5334 40.2575 48.646 39.7696L49.3557 36.7311C49.4598 36.2449 49.9682 35.8371 50.4749 35.8423L51.234 35.8371C52.1348 35.8423 52.8104 35.9907 53.2711 36.291C53.73 36.5912 53.9467 37.0621 53.9518 37.6865C53.9569 38.6385 53.6037 39.3721 52.9008 39.8941Z" fill="white"/>
<path d="M78.0377 33.865C78.1452 33.3754 77.8381 32.9779 77.3348 32.9847H75.2364C74.8064 32.9847 74.4192 33.3037 74.2298 33.6961L74.1138 33.877L74.008 34.341L71.0753 47.672L70.9798 48.0815L70.9832 48.0917C70.886 48.5302 71.1555 48.8612 71.5718 48.9243L71.6076 48.9738H73.7862C74.2127 48.9738 74.6137 48.6496 74.7962 48.2504L74.9088 48.0798L78.0445 33.8667L78.0377 33.865Z" fill="white"/>
<path d="M42.627 36.6323C42.0726 36.6391 39.8189 36.6323 39.8189 36.6323C39.3139 36.6323 38.6656 37.04 38.3449 37.5262C38.3449 37.5262 34.9908 43.2824 34.6649 43.8608L34.276 43.8557L33.2319 37.5655C33.1158 37.0707 32.5989 36.6476 31.9557 36.6476L29.8573 36.651C29.3523 36.651 29.0418 37.0537 29.1561 37.545C29.1561 37.545 30.7496 46.6126 31.0686 48.7469C31.217 49.9241 31.0498 50.1339 31.0498 50.1339L28.9753 53.7473C28.6682 54.2387 28.8337 54.6396 29.337 54.6396L31.763 54.6362C32.2679 54.6362 32.9316 54.2387 33.2319 53.7456L42.5639 37.9613C42.5639 37.963 43.4613 36.6135 42.627 36.6323Z" fill="white"/>
</g>
<defs>
<clipPath id="clip0">
<rect width="86" height="86" fill="white" transform="translate(-0.000183105)"/>
</clipPath>
</defs>
</svg>
