<svg width="128" height="128" viewBox="0 0 128 128" fill="none" xmlns="http://www.w3.org/2000/svg">
<path d="M122.258 4.31373L122.104 4.17321C119.158 1.4821 115.339 -0.00012207 111.35 -0.00012207C106.879 -0.00012207 102.586 1.89264 99.5718 5.19242L42.5757 67.5917C42.0562 68.1604 41.6622 68.8314 41.4185 69.5619L34.7166 89.6533C33.9418 91.9761 34.3307 94.545 35.7568 96.5247C37.1942 98.5198 39.51 99.7111 41.952 99.7111H41.9524C43.0086 99.7111 44.041 99.4939 45.0203 99.0654L64.4249 90.5764C65.1304 90.2678 65.7633 89.8147 66.2824 89.2461L123.279 26.8471C129.21 20.3544 128.752 10.2466 122.258 4.31373ZM47.5573 85.9419L51.4899 74.1524L51.8216 73.7891L59.2753 80.5971L58.9436 80.9603L47.5573 85.9419ZM115.152 19.4239L66.6985 72.4709L59.2448 65.663L107.699 12.6156C108.646 11.5781 109.943 11.0065 111.351 11.0065C112.585 11.0065 113.768 11.4658 114.683 12.3016L114.836 12.4421C116.848 14.2798 116.99 17.4119 115.152 19.4239Z" fill="white"/>
<path d="M111.201 50.7726C108.161 50.7726 105.697 53.2366 105.697 56.2759V102.998C105.697 110.715 99.4188 116.993 91.7018 116.993H25.0022C17.2847 116.993 11.0066 110.715 11.0066 102.998V36.8401C11.0066 29.123 17.2851 22.8445 25.0022 22.8445H73.2797C76.3189 22.8445 78.783 20.3805 78.783 17.3412C78.783 14.3019 76.3189 11.8379 73.2797 11.8379H25.0022C11.2157 11.8379 0 23.054 0 36.8401V102.997C0 116.784 11.2161 128 25.0022 128H91.7014C105.488 128 116.704 116.784 116.704 102.997V56.2759C116.704 53.2366 114.24 50.7726 111.201 50.7726Z" fill="white"/>
</svg>
