<svg width="128" height="128" viewBox="0 0 128 128" fill="none" xmlns="http://www.w3.org/2000/svg">
<path d="M100.148 44.1628H81.0207V55.5119H100.148C105.835 55.5119 110.248 58.4172 110.248 60.9178V111.243C110.248 113.744 105.835 116.649 100.148 116.649H27.8505C22.1628 116.649 17.7499 113.744 17.7499 111.243V60.9197C17.7499 58.4191 22.1628 55.5138 27.8505 55.5138H46.9736V44.1647H27.8505C15.8224 44.1647 6.40086 51.5246 6.40086 60.9197V111.245C6.40086 120.642 15.8224 128 27.8505 128H100.149C112.176 128 121.599 120.64 121.599 111.245V60.9197C121.597 51.5227 112.176 44.1628 100.148 44.1628Z" fill="white"/>
<path d="M47.2063 28.2875C48.659 28.2875 50.1097 27.7332 51.2182 26.6248L58.3227 19.5203V44.1628V55.5119V77.2528C58.3227 80.387 60.8629 82.9273 63.9972 82.9273C67.1314 82.9273 69.6717 80.387 69.6717 77.2528V55.5119V44.1628V19.1364L77.1601 26.6248C78.2686 27.7332 79.7213 28.2875 81.172 28.2875C82.6228 28.2875 84.0755 27.7332 85.1839 26.6248C87.4008 24.4099 87.4008 20.816 85.1839 18.6011L68.2417 1.65885C67.1333 0.550428 65.6825 0 64.2317 0C64.2166 0 64.2033 0 64.1882 0C64.1731 0 64.1598 0 64.1447 0C62.6939 0 61.2431 0.550428 60.1347 1.65885L43.1925 18.6011C40.9757 20.816 40.9757 24.4099 43.1925 26.6248C44.3028 27.7332 45.7536 28.2875 47.2063 28.2875Z" fill="white"/>
</svg>
