<svg width="633" height="492" viewBox="0 0 633 492" fill="none" xmlns="http://www.w3.org/2000/svg">
<path d="M273.712 477.378L266.233 451.951C266.233 451.951 277.638 403.528 253.52 401.285C230.711 399.228 236.88 442.79 237.441 447.464C236.693 442.603 228.28 394.18 208.462 401.472C186.214 409.698 221.923 454.569 221.923 454.569C213.884 444.286 193.318 428.768 186.027 445.034C182.848 452.138 189.579 458.682 198.366 463.917C192.757 462.608 187.149 462.047 185.279 464.291C180.231 470.648 190.701 477.939 210.706 478.313C217.997 478.5 221.736 477.004 223.419 474.948C223.606 474.948 223.793 475.135 223.793 475.135L273.712 477.378Z" fill="#78E2FF"/>
<path d="M273.712 477.378L266.233 451.951C266.233 451.951 277.638 403.528 253.52 401.285C230.711 399.228 236.88 442.79 237.441 447.464C236.693 442.603 228.28 394.18 208.462 401.472C186.214 409.698 221.923 454.569 221.923 454.569C213.884 444.286 193.318 428.768 186.027 445.034C182.848 452.138 189.579 458.682 198.366 463.917C192.757 462.608 187.149 462.047 185.279 464.291C180.231 470.648 190.701 477.939 210.706 478.313C217.997 478.5 221.736 477.004 223.419 474.948C223.606 474.948 223.793 475.135 223.793 475.135L273.712 477.378Z" fill="url(#paint0_linear)"/>
<path opacity="0.2" d="M236.693 478.687C236.693 478.687 211.641 468.965 217.623 460.739C221.363 455.504 228.841 464.478 228.841 464.478C228.841 464.478 219.119 451.764 227.532 448.025C236.132 444.099 240.807 458.682 240.807 458.682C240.807 458.682 237.628 445.969 244.172 444.099C250.715 442.229 251.276 456.812 251.276 456.812C251.276 456.812 259.877 445.221 264.925 454.569C269.599 462.982 255.576 479.435 255.576 479.435" fill="#00A4D6"/>
<path d="M421.412 468.03C421.785 463.356 411.503 463.356 403.65 464.291C414.12 458.308 423.468 450.643 419.916 442.79C412.624 426.525 389.067 444.473 381.028 454.756C381.028 454.756 416.737 409.885 394.489 401.659C374.671 394.367 366.258 442.79 365.51 447.651C366.258 442.977 372.428 399.415 349.431 401.472C325.313 403.715 329.239 477.565 329.239 477.565C329.239 477.565 419.916 484.109 421.412 468.03Z" fill="#78E2FF"/>
<path d="M421.412 468.03C421.785 463.356 411.503 463.356 403.65 464.291C414.12 458.308 423.468 450.643 419.916 442.79C412.624 426.525 389.067 444.473 381.028 454.756C381.028 454.756 416.737 409.885 394.489 401.659C374.671 394.367 366.258 442.79 365.51 447.651C366.258 442.977 372.428 399.415 349.431 401.472C325.313 403.715 329.239 477.565 329.239 477.565C329.239 477.565 419.916 484.109 421.412 468.03Z" fill="url(#paint1_linear)"/>
<path opacity="0.2" d="M365.884 480.37C365.884 480.37 390.937 470.648 384.954 462.421C381.215 457.186 373.736 466.161 373.736 466.161C373.736 466.161 383.458 453.447 375.045 449.708C366.445 445.782 361.771 460.365 361.771 460.365C361.771 460.365 364.949 447.651 358.405 445.782C351.862 443.912 351.301 458.495 351.301 458.495C351.301 458.495 342.701 446.903 337.653 456.252C332.979 464.665 347.001 481.117 347.001 481.117" fill="#00A4D6"/>
<g opacity="0.2">
<path opacity="0.2" d="M76.0933 278.264C70.6714 272.094 62.8191 268.168 54.0319 268.168C45.8055 268.168 38.514 271.534 33.2791 276.955C28.0442 282.19 24.8658 289.482 24.8658 297.334C24.8658 313.413 37.9532 326.5 54.0319 326.5C58.7059 326.5 63.193 325.378 67.1192 323.322C74.9716 319.396 80.7674 312.104 82.637 303.317C83.0109 301.26 83.1979 299.391 83.1979 297.147C83.1979 290.043 80.5804 283.312 76.0933 278.264ZM77.776 302.569C76.2803 309.861 71.4193 316.03 64.8756 319.209C61.6973 320.891 57.958 321.826 54.0319 321.826C40.7576 321.826 29.7268 310.982 29.7268 297.521C29.7268 290.978 32.3443 284.995 36.6444 280.508C41.1315 276.021 47.1143 273.216 53.8449 273.216C61.1364 273.216 67.68 276.395 72.1671 281.442C75.9064 285.743 78.1499 291.351 78.1499 297.334C78.3369 299.204 78.1499 300.886 77.776 302.569Z" fill="#18BDF7"/>
</g>
<path opacity="0.2" d="M82.637 303.504C80.7674 312.291 74.9716 319.583 67.1192 323.509L64.8757 319.022C71.4193 315.843 76.2803 309.674 77.776 302.382L82.637 303.504Z" fill="#18BDF7"/>
<path opacity="0.26" d="M76.0934 278.264L72.3542 281.442C67.8671 276.395 61.3234 273.216 54.0319 273.216C47.3013 273.216 41.1316 276.021 36.8314 280.508L33.2792 276.955C38.5141 271.534 45.9926 268.168 54.0319 268.168C62.8191 268.168 70.6715 272.094 76.0934 278.264Z" fill="#4A63FE"/>
<g opacity="0.8">
<g opacity="0.2">
<path opacity="0.2" d="M246.976 30.5399C243.424 26.4268 238.189 23.8093 232.393 23.8093C226.971 23.8093 222.11 26.0529 218.558 29.6051C215.193 33.1574 212.949 37.8315 212.949 43.2533C212.949 53.9102 221.736 62.6973 232.393 62.6973C235.572 62.6973 238.376 61.9495 240.994 60.6408C246.228 58.0233 250.155 53.1623 251.276 47.3665C251.65 46.0578 251.65 44.749 251.65 43.2533C251.837 38.3923 249.968 33.9053 246.976 30.5399ZM248.098 46.6186C246.976 51.4796 243.798 55.5928 239.498 57.6494C237.254 58.7712 234.824 59.332 232.206 59.332C223.232 59.332 216.128 52.0405 216.128 43.2533C216.128 38.7663 217.81 34.8401 220.802 32.0356C223.793 29.0443 227.719 27.1746 232.206 27.1746C237.067 27.1746 241.367 29.2312 244.359 32.7835C246.789 35.5879 248.285 39.3271 248.285 43.4403C248.472 44.5621 248.472 45.6838 248.098 46.6186Z" fill="#18BDF7"/>
</g>
<path opacity="0.2" d="M251.463 47.3665C250.155 53.1623 246.415 58.0233 241.181 60.6407L239.685 57.6494C243.985 55.4058 247.163 51.4796 248.285 46.6186L251.463 47.3665Z" fill="#18BDF7"/>
<path opacity="0.26" d="M246.976 30.5399L244.546 32.7835C241.554 29.4182 237.254 27.1746 232.393 27.1746C227.906 27.1746 223.793 29.0442 220.989 32.0356L218.558 29.7921C222.11 26.2398 226.971 23.9963 232.393 23.9963C238.189 23.9963 243.424 26.4268 246.976 30.5399Z" fill="#4A63FE"/>
</g>
<path opacity="0.2" d="M30.4747 373.241L33.4661 370.997C31.9704 368.754 30.1008 366.884 27.8573 365.388L25.6137 368.38C24.305 367.632 22.9963 367.071 21.5006 366.697L22.0615 362.958C20.7527 362.584 19.444 362.584 18.1353 362.584C16.8265 362.584 15.5178 362.771 14.2091 362.958L14.77 366.697C13.2743 367.071 11.9655 367.632 10.6568 368.38L8.41327 365.388C6.16973 366.884 4.30012 368.754 2.80442 370.997L5.79581 373.241C5.04796 374.549 4.48707 375.858 4.11315 377.354L0.373918 376.793C-5.71119e-06 378.102 0 379.41 0 380.719C0 382.028 0.186956 383.337 0.373918 384.645L4.11315 384.084C4.48707 385.58 5.04796 386.889 5.79581 388.198L2.80442 390.441C4.30012 392.685 6.16973 394.554 8.41327 396.05L10.6568 393.059C11.9655 393.806 13.2743 394.367 14.77 394.741L14.2091 398.48C15.5178 398.854 16.8265 398.854 18.1353 398.854C19.444 398.854 20.7527 398.667 22.0615 398.48L21.5006 394.741C22.9963 394.367 24.305 393.806 25.6137 393.059L27.8573 396.05C30.1008 394.554 31.9704 392.685 33.4661 390.441L30.4747 388.198C31.2226 386.889 31.7835 385.58 32.1574 384.084L35.8966 384.645C36.2705 383.337 36.2705 382.028 36.2705 380.719C36.2705 379.41 36.0836 378.102 35.8966 376.793L32.1574 377.354C31.7835 375.858 31.2226 374.549 30.4747 373.241ZM17.9483 390.628C12.5264 390.628 8.2263 386.328 8.2263 380.906C8.2263 375.484 12.5264 371.184 17.9483 371.184C23.3702 371.184 27.6703 375.484 27.6703 380.906C27.6703 386.141 23.3702 390.628 17.9483 390.628Z" fill="#00A4D6"/>
<path opacity="0.15" d="M597.342 95.6026L601.829 92.2372C599.586 88.8719 596.781 85.8806 593.416 83.824L590.051 88.3111C588.181 87.1893 586.125 86.2545 583.881 85.6936L584.629 80.2717C582.759 79.8978 580.703 79.5239 578.646 79.5239C576.59 79.5239 574.533 79.7108 572.663 80.2717L573.411 85.6936C571.168 86.2545 569.111 87.1893 567.242 88.3111L563.876 83.824C560.511 86.0675 557.52 88.8719 555.463 92.2372L559.95 95.6026C558.828 97.4722 557.893 99.5288 557.333 101.772L551.911 101.024C551.537 102.894 551.163 104.951 551.163 107.007C551.163 109.064 551.35 111.12 551.911 112.99L557.333 112.242C557.893 114.486 558.828 116.542 559.95 118.412L555.463 121.777C557.706 125.142 560.511 128.134 563.876 130.19L567.242 125.703C569.111 126.825 571.168 127.76 573.411 128.321L572.663 133.743C574.533 134.117 576.59 134.491 578.646 134.491C580.703 134.491 582.759 134.304 584.629 133.743L583.881 128.321C586.125 127.76 588.181 126.825 590.051 125.703L593.416 130.19C596.781 127.947 599.773 125.142 601.829 121.777L597.342 118.412C598.464 116.542 599.399 114.486 599.96 112.242L605.382 112.99C605.756 111.12 606.13 109.064 606.13 107.007C606.13 104.951 605.943 102.894 605.382 101.024L599.96 101.772C599.399 99.5288 598.464 97.4722 597.342 95.6026ZM578.646 121.59C570.607 121.59 564.063 115.047 564.063 107.007C564.063 98.9679 570.607 92.4242 578.646 92.4242C586.686 92.4242 593.229 98.9679 593.229 107.007C593.229 115.047 586.686 121.59 578.646 121.59Z" fill="#00A4D6"/>
<path opacity="0.1" d="M179.296 8.47847C179.296 12.5916 175.931 15.9569 171.818 15.9569C167.705 15.9569 164.339 12.5916 164.339 8.47847C164.339 4.36531 167.705 1 171.818 1C175.931 1 179.296 4.36531 179.296 8.47847Z" stroke="#00A4D6" stroke-width="1.9302" stroke-miterlimit="10"/>
<path opacity="0.5" d="M470.395 35.7749C470.395 39.888 467.03 43.2533 462.917 43.2533C458.804 43.2533 455.438 39.888 455.438 35.7749C455.438 31.6617 458.804 28.2964 462.917 28.2964C467.03 28.2964 470.395 31.6617 470.395 35.7749Z" stroke="#00A4D6" stroke-width="0.4826" stroke-miterlimit="10"/>
<path opacity="0.1" d="M270.907 103.081C277.413 103.081 282.686 97.8076 282.686 91.3024C282.686 84.7973 277.413 79.5239 270.907 79.5239C264.402 79.5239 259.129 84.7973 259.129 91.3024C259.129 97.8076 264.402 103.081 270.907 103.081Z" stroke="#00A4D6" stroke-width="3.0182" stroke-miterlimit="10"/>
<path opacity="0.1" d="M617.721 266.672C617.721 273.216 612.486 278.451 605.943 278.451C599.399 278.451 594.164 273.216 594.164 266.672C594.164 260.129 599.399 254.894 605.943 254.894C612.486 254.894 617.721 260.316 617.721 266.672Z" stroke="#00A4D6" stroke-width="3.0182" stroke-miterlimit="10"/>
<path d="M546.302 127.012V409.137C546.302 415.868 540.88 421.29 534.149 421.29H68.615C61.8844 421.29 56.4625 415.868 56.4625 409.137V127.012C56.4625 120.282 61.8844 114.86 68.615 114.86H534.149C540.693 114.86 546.302 120.282 546.302 127.012Z" fill="#4A63FE"/>
<path d="M351.114 473.265H251.463L262.307 430.638L264.738 421.103L269.412 402.407H333.166L337.84 421.103L340.27 430.638L351.114 473.265Z" fill="#4A63FE"/>
<path d="M340.27 430.638H262.307L264.738 421.103H337.84L340.27 430.638Z" fill="#425DE2"/>
<path d="M389.441 485.044H213.323C209.023 485.044 205.658 481.678 205.658 477.378C205.658 473.078 209.023 469.713 213.323 469.713H389.441C393.741 469.713 397.106 473.078 397.106 477.378C397.106 481.678 393.554 485.044 389.441 485.044Z" fill="#425DE2"/>
<path opacity="0.2" d="M546.302 158.422H55.5276V372.493H546.302V158.422Z" fill="#60F4DF"/>
<path d="M301.195 407.455C295.025 407.455 289.977 402.407 289.977 396.237C289.977 390.067 295.025 385.019 301.195 385.019C307.365 385.019 312.413 390.067 312.413 396.237C312.6 402.22 307.552 407.455 301.195 407.455Z" fill="#3B5BD1"/>
<path opacity="0.2" d="M529.101 296.399H231.272C227.906 296.399 225.102 293.595 225.102 290.23V170.013C225.102 166.648 227.906 163.844 231.272 163.844H529.101C532.467 163.844 535.271 166.648 535.271 170.013V290.23C535.271 293.782 532.467 296.399 529.101 296.399Z" fill="white"/>
<path opacity="0.39" d="M526.858 234.889V285.182C526.858 287.425 524.988 289.295 522.745 289.295H236.507C234.263 289.295 232.393 287.425 232.393 285.182V174.687C258.755 174.687 272.029 184.596 279.695 197.497C280.256 198.245 280.629 199.179 281.19 200.114C294.278 224.793 290.351 258.633 318.957 258.633C320.078 258.633 321.013 258.446 321.948 258.259C322.509 258.072 323.07 257.885 323.631 257.698C342.888 249.472 339.896 191.888 374.297 192.262C381.589 192.262 387.198 195.253 391.498 199.74C391.872 200.114 392.246 200.675 392.806 201.049C408.137 219.184 408.324 259.381 432.068 266.672C440.669 269.29 448.147 265.738 455.626 259.755C456.186 259.381 456.56 259.007 457.121 258.633C472.826 245.546 488.531 223.297 512.649 228.719C513.397 228.906 514.145 229.093 514.705 229.28C518.632 230.589 522.558 232.272 526.858 234.889Z" fill="white"/>
<path opacity="0.8" d="M527.045 224.793C521.81 224.793 517.884 226.663 514.892 229.467C509.097 234.702 505.918 243.489 502.927 252.089C498.253 264.99 493.579 278.451 479.744 278.451C478.996 278.451 478.248 278.451 477.5 278.264C468.526 277.329 461.795 270.038 456 259.942C452.447 253.772 449.082 246.481 445.717 238.815C436.182 217.689 426.086 196.001 407.95 195.44C407.763 195.44 407.576 195.44 407.39 195.44C401.781 195.44 397.294 197.497 393.554 201.049C385.889 208.154 380.841 220.867 375.98 233.206C368.875 251.716 361.584 270.599 344.944 270.973C332.979 271.16 327.557 266.672 322.696 258.072C320.826 254.707 318.957 250.781 316.9 246.294C313.161 238.067 308.487 227.784 300.634 216.006C295.399 207.967 288.856 202.919 281.751 199.927C262.681 191.514 240.059 197.684 232.954 199.927V198.058C240.433 195.627 261.559 190.205 280.256 197.31C288.482 200.488 296.147 205.91 302.13 215.071C309.982 227.037 314.657 237.32 318.396 245.733C320.452 250.407 322.322 254.333 324.192 257.698C328.866 265.551 333.727 269.477 344.57 269.29C359.901 268.916 366.819 251.342 374.11 232.645C378.971 219.932 384.019 207.032 392.059 199.74C396.359 195.814 401.407 193.571 407.763 193.757C427.207 194.318 437.303 216.567 447.212 238.254C450.578 245.546 453.756 252.65 457.308 258.82C462.917 268.542 469.274 275.647 477.687 276.581C491.896 278.077 496.57 265.177 501.431 251.529C504.423 243.115 507.414 234.515 513.023 228.906C516.575 225.354 521.062 223.11 527.419 223.11L527.045 224.793Z" fill="white"/>
<path opacity="0.5" d="M530.036 331.174H376.541C373.736 331.174 371.306 328.931 371.306 325.939V307.43C371.306 304.626 373.549 302.195 376.541 302.195H530.036C532.841 302.195 535.271 304.439 535.271 307.43V325.939C535.271 328.744 532.841 331.174 530.036 331.174Z" fill="#9CD7FF"/>
<path opacity="0.2" d="M530.036 366.136H376.541C373.736 366.136 371.306 363.893 371.306 360.901V342.392C371.306 339.588 373.549 337.157 376.541 337.157H530.036C532.841 337.157 535.271 339.401 535.271 342.392V360.901C535.271 363.893 532.841 366.136 530.036 366.136Z" fill="white"/>
<path opacity="0.2" d="M214.071 228.158H74.2238C70.8585 228.158 68.0541 225.354 68.0541 221.989V170.2C68.0541 166.835 70.8585 164.031 74.2238 164.031H214.071C217.436 164.031 220.241 166.835 220.241 170.2V221.989C220.241 225.354 217.436 228.158 214.071 228.158Z" fill="#9CD7FF"/>
<g opacity="0.3">
<path opacity="0.3" d="M198.74 222.737H191.262C190.327 222.737 189.766 221.989 189.766 221.241V181.792C189.766 180.857 190.514 180.296 191.262 180.296H198.74C199.675 180.296 200.236 181.044 200.236 181.792V221.241C200.236 221.989 199.488 222.737 198.74 222.737Z" fill="white"/>
<path opacity="0.3" d="M212.949 222.737H205.845C204.91 222.737 204.162 221.989 204.162 221.054V171.883C204.162 170.948 204.91 170.2 205.845 170.2H212.949C213.884 170.2 214.632 170.948 214.632 171.883V221.054C214.632 221.989 213.884 222.737 212.949 222.737Z" fill="white"/>
<path opacity="0.3" d="M82.8241 222.737H75.7195C74.7847 222.737 74.0369 221.989 74.0369 221.054V171.883C74.0369 170.948 74.7847 170.2 75.7195 170.2H82.8241C83.7589 170.2 84.5067 170.948 84.5067 171.883V221.054C84.5067 221.989 83.7589 222.737 82.8241 222.737Z" fill="white"/>
<path opacity="0.3" d="M97.594 222.737H90.1156C89.3677 222.737 88.6199 221.989 88.6199 221.241V184.222C88.6199 183.475 89.3677 182.727 90.1156 182.727H97.594C98.3419 182.727 99.0897 183.475 99.0897 184.222V221.241C99.0897 221.989 98.3419 222.737 97.594 222.737Z" fill="white"/>
<path opacity="0.3" d="M111.803 222.737H104.699C103.764 222.737 103.016 221.989 103.016 221.054V171.883C103.016 170.948 103.764 170.2 104.699 170.2H111.803C112.738 170.2 113.486 170.948 113.486 171.883V221.054C113.486 221.989 112.738 222.737 111.803 222.737Z" fill="white"/>
<path opacity="0.3" d="M126.76 222.737H118.721C117.973 222.737 117.412 222.176 117.412 221.428V195.066C117.412 194.318 117.973 193.758 118.721 193.758H126.76C127.508 193.758 128.069 194.318 128.069 195.066V221.428C127.882 222.176 127.321 222.737 126.76 222.737Z" fill="white"/>
<path opacity="0.3" d="M140.782 222.737H133.678C132.743 222.737 131.995 221.989 131.995 221.054V171.883C131.995 170.948 132.743 170.2 133.678 170.2H140.782C141.717 170.2 142.465 170.948 142.465 171.883V221.054C142.465 221.989 141.717 222.737 140.782 222.737Z" fill="white"/>
<path opacity="0.3" d="M155.365 222.737H147.887C146.952 222.737 146.391 221.989 146.391 221.241V181.792C146.391 180.857 147.139 180.296 147.887 180.296H155.365C156.3 180.296 156.861 181.044 156.861 181.792V221.241C156.861 221.989 156.113 222.737 155.365 222.737Z" fill="white"/>
<path opacity="0.3" d="M169.574 222.737H162.47C161.535 222.737 160.787 221.989 160.787 221.054V171.883C160.787 170.948 161.535 170.2 162.47 170.2H169.574C170.509 170.2 171.257 170.948 171.257 171.883V221.054C171.257 221.989 170.509 222.737 169.574 222.737Z" fill="white"/>
<path opacity="0.3" d="M184.344 222.737H176.866C176.118 222.737 175.37 221.989 175.37 221.241V184.222C175.37 183.475 176.118 182.727 176.866 182.727H184.344C185.092 182.727 185.84 183.475 185.84 184.222V221.241C185.84 221.989 185.092 222.737 184.344 222.737Z" fill="white"/>
</g>
<path opacity="0.2" d="M214.071 297.147H74.2238C70.8585 297.147 68.0541 294.343 68.0541 290.978V239.189C68.0541 235.824 70.8585 233.019 74.2238 233.019H214.071C217.436 233.019 220.241 235.824 220.241 239.189V290.978C220.241 294.343 217.436 297.147 214.071 297.147Z" fill="white"/>
<path opacity="0.2" d="M214.071 366.136H74.2238C70.8585 366.136 68.0541 363.332 68.0541 359.966V308.178C68.0541 304.813 70.8585 302.008 74.2238 302.008H214.071C217.436 302.008 220.241 304.813 220.241 308.178V359.966C220.241 363.332 217.436 366.136 214.071 366.136Z" fill="white"/>
<path opacity="0.5" d="M212.575 241.433C211.08 241.433 209.771 242.741 209.771 244.237C209.771 244.798 209.958 245.172 210.145 245.733L186.962 271.907C186.588 271.72 186.214 271.72 185.84 271.72C185.466 271.72 185.092 271.907 184.718 271.907L159.665 247.228C159.852 246.855 159.852 246.481 159.852 246.107C159.852 244.611 158.543 243.302 157.048 243.302C155.552 243.302 154.243 244.611 154.243 246.107C154.243 246.481 154.43 247.042 154.43 247.228L122.273 282.003C121.899 281.629 121.338 281.442 120.59 281.442C120.029 281.442 119.655 281.629 119.282 281.816L101.707 258.82C102.081 258.259 102.268 257.698 102.268 257.137C102.268 255.642 100.959 254.333 99.4636 254.333C97.9679 254.333 96.6592 255.642 96.6592 257.137C96.6592 257.698 96.8462 258.072 97.0331 258.446L77.0282 284.434C76.6543 284.247 76.4673 284.247 76.0934 284.247C74.5977 284.247 73.289 285.556 73.289 287.051C73.289 288.547 74.5977 289.856 76.0934 289.856C77.5891 289.856 78.8978 288.547 78.8978 287.051C78.8978 286.49 78.7109 285.93 78.5239 285.556L98.1549 260.129C98.5288 260.316 98.9027 260.316 99.2767 260.316C99.6506 260.316 99.8375 260.316 100.211 260.129L117.973 283.312C117.786 283.686 117.786 284.06 117.786 284.434C117.786 285.93 119.095 287.238 120.59 287.238C122.086 287.238 123.395 285.93 123.395 284.434C123.395 284.06 123.395 283.873 123.208 283.499L155.552 248.537C155.926 248.724 156.487 248.911 156.861 248.911C157.422 248.911 157.796 248.724 158.17 248.537L183.035 273.029C182.848 273.403 182.662 273.964 182.662 274.338C182.662 275.834 183.97 277.142 185.466 277.142C186.962 277.142 188.27 275.834 188.27 274.338C188.27 273.777 188.083 273.216 187.896 272.842L211.08 246.668C211.454 246.855 211.828 246.855 212.201 246.855C213.697 246.855 215.006 245.546 215.006 244.05C215.38 242.741 214.071 241.433 212.575 241.433Z" fill="white"/>
<path opacity="0.3" d="M199.675 312.291H76.2804C74.7847 312.291 73.6629 311.169 73.6629 309.674C73.6629 308.178 74.7847 307.056 76.2804 307.056H199.675C201.171 307.056 202.293 308.178 202.293 309.674C202.293 311.169 201.171 312.291 199.675 312.291Z" fill="white"/>
<path opacity="0.3" d="M186.775 322.013H76.0935C74.7847 322.013 73.476 320.891 73.476 319.396V319.022C73.476 317.713 74.5978 316.404 76.0935 316.404H186.775C188.083 316.404 189.392 317.526 189.392 319.022V319.396C189.392 320.891 188.27 322.013 186.775 322.013Z" fill="white"/>
<path opacity="0.3" d="M212.762 331.735H76.4674C74.9717 331.735 73.8499 330.613 73.8499 329.118C73.8499 327.622 74.9717 326.5 76.4674 326.5H212.762C214.258 326.5 215.38 327.622 215.38 329.118C215.38 330.426 214.258 331.735 212.762 331.735Z" fill="white"/>
<path opacity="0.3" d="M174.248 341.27H76.0934C74.7847 341.27 73.6629 340.148 73.6629 338.84V338.279C73.6629 336.97 74.7847 335.848 76.0934 335.848H174.248C175.557 335.848 176.679 336.97 176.679 338.279V338.84C176.679 340.335 175.557 341.27 174.248 341.27Z" fill="white"/>
<path opacity="0.3" d="M200.984 350.992H76.2804C74.7847 350.992 73.6629 349.87 73.6629 348.375C73.6629 346.879 74.7847 345.757 76.2804 345.757H200.984C202.479 345.757 203.601 346.879 203.601 348.375C203.601 349.87 202.479 350.992 200.984 350.992Z" fill="white"/>
<path opacity="0.3" d="M212.762 360.714H76.4674C74.9717 360.714 73.8499 359.592 73.8499 358.097C73.8499 356.601 74.9717 355.479 76.4674 355.479H212.762C214.258 355.479 215.38 356.601 215.38 358.097C215.38 359.405 214.258 360.714 212.762 360.714Z" fill="white"/>
<path opacity="0.5" d="M289.604 334.166C289.604 351.927 275.208 366.136 257.633 366.136C239.872 366.136 225.663 351.74 225.663 334.166C225.663 316.404 240.059 302.195 257.633 302.195C260.251 302.195 262.681 302.569 265.112 303.13C278.386 306.308 288.482 317.713 289.604 331.735C289.604 332.483 289.604 333.231 289.604 334.166Z" fill="#9CD7FF"/>
<path d="M289.604 331.548L257.633 334.166L265.112 302.943C278.386 306.121 288.482 317.526 289.604 331.548Z" fill="#9CD7FF"/>
<path opacity="0.5" d="M361.023 307.243H299.326C298.204 307.243 297.269 306.308 297.269 305.187C297.269 304.065 298.204 303.13 299.326 303.13H361.023C362.145 303.13 363.079 304.065 363.079 305.187C363.079 306.308 362.145 307.243 361.023 307.243Z" fill="#9CD7FF"/>
<path opacity="0.5" d="M351.862 315.469H299.326C298.204 315.469 297.269 314.535 297.269 313.413V313.226C297.269 312.104 298.204 311.169 299.326 311.169H351.862C352.984 311.169 353.918 312.104 353.918 313.226V313.413C353.918 314.722 352.984 315.469 351.862 315.469Z" fill="#9CD7FF"/>
<path opacity="0.5" d="M339.148 323.883H298.952C298.017 323.883 297.082 323.135 297.082 322.013V321.265C297.082 320.33 297.83 319.396 298.952 319.396H339.148C340.083 319.396 341.018 320.144 341.018 321.265V322.013C341.018 323.135 340.27 323.883 339.148 323.883Z" fill="#9CD7FF"/>
<path opacity="0.5" d="M361.023 332.296H299.326C298.204 332.296 297.269 331.361 297.269 330.239C297.269 329.118 298.204 328.183 299.326 328.183H361.023C362.145 328.183 363.079 329.118 363.079 330.239C363.079 331.361 362.145 332.296 361.023 332.296Z" fill="#9CD7FF"/>
<path opacity="0.5" d="M353.731 340.709H299.139C298.017 340.709 297.082 339.774 297.082 338.653C297.082 337.531 298.017 336.596 299.139 336.596H353.731C354.853 336.596 355.788 337.531 355.788 338.653V338.84C355.788 339.775 355.04 340.709 353.731 340.709Z" fill="#9CD7FF"/>
<path opacity="0.5" d="M361.023 349.123H299.326C298.204 349.123 297.269 348.188 297.269 347.066C297.269 345.944 298.204 345.009 299.326 345.009H361.023C362.145 345.009 363.079 345.944 363.079 347.066C363.079 348.188 362.145 349.123 361.023 349.123Z" fill="#9CD7FF"/>
<path opacity="0.5" d="M348.497 357.536H299.139C298.017 357.536 297.082 356.601 297.082 355.479V355.105C297.082 353.984 298.017 353.049 299.139 353.049H348.497C349.618 353.049 350.553 353.984 350.553 355.105V355.479C350.366 356.601 349.618 357.536 348.497 357.536Z" fill="#9CD7FF"/>
<path opacity="0.5" d="M361.023 365.949H299.326C298.204 365.949 297.269 365.014 297.269 363.893C297.269 362.771 298.204 361.836 299.326 361.836H361.023C362.145 361.836 363.079 362.771 363.079 363.893C363.079 365.014 362.145 365.949 361.023 365.949Z" fill="#9CD7FF"/>
<path d="M546.302 127.012V409.137C546.302 415.868 540.88 421.29 534.149 421.29H68.615C61.8844 421.29 56.4625 415.868 56.4625 409.137V127.012C56.4625 120.282 61.8844 114.86 68.615 114.86H534.149C540.693 114.86 546.302 120.282 546.302 127.012Z" fill="url(#paint2_linear)"/>
<g opacity="0.3">
<g opacity="0.3">
<path opacity="0.3" d="M217.436 263.307C217.623 262.559 216.876 262.372 215.941 263.868C214.819 265.738 212.949 266.859 210.706 267.42C210.519 267.046 211.08 266.859 211.454 266.112C211.828 265.177 211.641 264.616 211.267 264.429C210.893 264.242 210.332 265.364 210.145 265.551C209.21 266.299 208.462 267.046 207.527 267.794C206.593 268.542 206.032 269.29 205.658 270.412C205.658 270.412 205.658 270.786 205.471 270.973C199.675 275.46 180.231 281.069 177.614 282.564C177.053 282.938 172.94 283.125 167.892 282.938C167.892 282.377 167.892 282.003 167.892 282.003C167.892 282.003 159.852 280.695 156.113 278.451C153.869 277.142 151.626 277.329 150.691 277.329C150.504 276.955 150.317 276.768 150.13 276.394C150.13 276.394 150.13 276.394 149.943 276.208C149.008 275.086 147.513 274.525 146.578 273.216C146.578 271.72 146.391 268.542 147.139 267.046C147.7 265.925 149.943 264.055 152.374 261.998C153.496 261.064 154.43 259.194 153.683 256.39C152.748 252.089 152.374 250.033 151.626 248.724C151.252 247.789 150.317 247.228 149.943 246.294C149.943 246.107 149.756 246.107 149.756 245.92C150.878 244.611 147.513 235.263 137.417 235.637C134.799 235.637 132.182 235.824 129.938 237.133C127.695 238.254 125.077 240.311 125.264 242.367C121.712 243.115 121.151 246.668 120.777 248.163C120.403 250.033 120.216 252.089 120.59 254.146C120.964 257.137 122.086 259.942 122.647 262.746C123.208 265.177 123.208 267.794 122.273 270.038C121.338 272.281 119.282 273.403 118.16 275.46C116.851 278.077 116.851 281.442 118.347 284.247C118.908 285.369 119.655 286.49 120.216 287.612C119.282 290.604 117.973 294.717 117.225 298.643L90.4895 303.13C89.7416 303.317 89.1808 304.065 89.3677 304.813L96.0983 343.888C96.2853 344.635 97.0331 345.196 97.781 345.009L120.403 341.083C120.029 344.075 120.029 347.253 120.403 350.431C120.777 353.049 123.395 360.34 123.769 362.958C124.703 368.94 126.573 377.915 126.573 384.645C127.134 385.019 127.695 385.393 128.443 385.767C129.938 393.993 131.06 401.659 130.873 402.781C130.499 405.398 127.695 412.69 126.76 420.168C126.76 420.542 126.76 420.729 126.573 421.103H141.53C142.652 415.681 143.4 410.82 143.961 407.268C144.147 406.333 144.147 405.585 144.334 404.837V404.65C144.334 404.276 144.334 403.902 144.521 403.528C144.521 402.967 144.521 402.22 144.708 401.472C144.708 401.285 144.708 401.098 144.708 400.911C144.708 400.35 144.708 399.789 144.708 399.228C144.708 399.041 144.708 398.854 144.708 398.667C144.708 397.92 144.708 397.172 144.708 396.424C144.708 396.237 144.708 395.863 144.708 395.676C144.708 395.115 144.708 394.367 144.708 393.806C144.708 393.432 144.708 393.245 144.708 392.872V392.124C147.139 399.415 149.195 404.837 149.195 404.837C149.195 404.837 146.952 412.316 146.578 421.103H160.787C161.161 412.876 161.535 405.959 161.722 402.781C161.909 397.172 161.722 391.563 161.348 385.58C162.283 377.354 162.096 370.623 161.348 359.218C160.787 350.057 158.543 341.27 156.3 334.913L170.322 332.483C171.07 332.296 171.631 331.548 171.444 330.8L165.274 294.343C166.77 294.343 167.518 294.53 167.518 294.53C167.705 293.969 167.705 293.408 167.892 292.847C172.94 292.473 177.24 291.912 178.174 291.725C186.401 290.043 206.78 276.394 208.462 275.086C209.771 275.46 213.51 274.151 214.445 272.468C214.819 271.907 215.006 271.347 214.819 270.786C215.38 270.038 216.315 267.607 214.632 268.168C216.502 267.046 216.876 265.364 217.436 263.307Z" fill="#5FB0E7"/>
</g>
</g>
<path opacity="0.5" d="M182.475 486.913C182.475 489.344 164.526 491.4 142.465 491.4C120.403 491.4 102.455 489.344 102.455 486.913C102.455 484.483 120.403 482.426 142.465 482.426C164.526 482.426 182.475 484.483 182.475 486.913Z" fill="#00A4D6"/>
<path d="M138.352 343.888L119.281 328.557C119.281 328.557 114.794 339.401 118.347 350.618C120.029 356.227 118.16 360.153 119.094 362.771C120.029 365.201 126.386 400.163 126.012 402.781C125.638 405.398 122.834 412.689 121.899 420.168C120.777 429.329 121.712 458.869 120.777 466.721C119.842 474.574 127.134 475.696 127.508 473.078C130.312 450.269 138.538 414.746 139.473 403.341C140.595 392.124 139.66 371.371 138.352 343.888Z" fill="#FFE1BD"/>
<path d="M138.913 366.323L131.247 385.206C134.799 391.002 137.043 397.733 137.417 404.65C137.604 408.202 137.417 411.942 137.604 415.494C137.604 415.681 137.604 416.055 137.791 416.242C138.726 410.82 139.473 406.52 139.66 403.528C140.408 395.489 140.034 382.776 139.473 366.323C139.286 366.323 139.099 366.323 138.913 366.323Z" fill="#FCCB95"/>
<path d="M128.63 465.974C128.63 465.974 127.134 474.2 127.508 475.322C128.069 476.443 129.751 479.435 131.434 480.37C133.304 481.491 137.23 482.8 137.604 483.174C137.978 483.735 137.978 484.483 137.417 484.857C135.921 485.978 133.491 486.726 131.808 486.352C126.386 485.604 125.825 483.174 122.647 482.8C122.086 482.8 121.151 483.548 119.655 482.8C118.16 482.052 117.412 480.743 117.412 479.435C117.599 477.191 118.721 475.322 119.655 473.639C120.59 471.956 120.964 464.291 120.964 464.291" fill="#FFE1BD"/>
<path d="M138.165 485.418C138.539 484.67 138.539 483.735 138.165 483.548C137.604 483.174 135.734 482.052 134.799 481.678C133.678 481.304 131.995 480.744 132.556 481.117C133.117 481.491 132.182 482.613 131.06 482.613C127.695 482.426 125.077 480.37 123.208 479.809C120.403 479.248 119.095 475.883 119.095 475.322C118.534 475.696 117.412 478.313 117.225 479.248C117.038 479.996 116.664 481.491 116.851 482.239C117.038 482.8 117.412 483.922 117.225 485.044C117.225 485.044 117.786 485.418 119.282 485.792C120.216 485.978 121.525 485.792 121.525 485.792L121.712 484.109C121.712 484.109 122.46 484.109 123.395 484.296C124.329 484.483 126.012 485.418 126.012 485.418C126.386 485.791 126.76 486.726 127.321 486.913C128.63 487.474 130.125 487.848 131.808 487.848C135.36 487.661 137.417 486.539 138.165 485.418Z" fill="#594A5F"/>
<path d="M165.835 483.548C165.461 483.174 161.161 482.426 159.104 481.678C157.235 480.93 154.804 478.313 154.243 477.191C153.869 476.07 153.869 470.461 153.869 468.217C154.056 451.951 156.674 412.503 157.048 402.967C157.609 386.515 155.365 369.501 148.821 343.14L125.077 325.378C125.077 325.378 118.534 337.718 120.964 349.496C122.273 356.227 127.882 357.349 129.004 359.966C129.938 362.584 144.708 405.024 144.708 405.024C144.708 405.024 142.091 414.185 141.904 424.468C141.904 433.068 146.017 459.056 146.765 468.965C146.952 470.835 147.326 475.509 146.765 477.004C146.017 478.874 144.334 480.93 144.521 483.174C144.521 484.483 145.643 485.791 147.139 486.165C148.821 486.726 149.756 485.605 150.317 485.605C153.682 485.418 154.617 487.661 160.226 487.661C161.909 487.661 164.526 486.726 165.835 485.231C166.396 484.67 166.209 484.109 165.835 483.548Z" fill="#FFE1BD"/>
<path d="M166.396 485.605C166.77 484.857 166.583 483.922 166.209 483.735C165.648 483.548 163.591 482.613 162.47 482.239C161.348 481.865 159.478 481.865 160.226 482.052C160.974 482.239 159.852 483.548 158.917 483.735C155.365 484.109 152.374 482.239 150.317 482.239C147.326 482.052 146.204 479.061 146.017 478.5C145.456 478.874 144.147 481.865 143.96 482.613C143.773 483.361 143.587 484.857 143.96 485.605C144.147 486.165 144.708 487.1 144.708 488.222C144.708 488.222 145.269 488.596 146.952 488.596C147.887 488.596 149.195 488.222 149.195 488.222V486.352C149.195 486.352 149.943 486.165 151.065 486.165C152.187 486.165 153.309 486.726 154.056 487.1C154.617 487.474 154.991 488.035 155.552 488.222C157.235 488.596 158.356 488.783 160.226 488.596C163.778 488.222 165.835 486.913 166.396 485.605Z" fill="#594A5F"/>
<path d="M203.788 275.273C204.91 275.647 208.836 274.338 209.771 272.655C210.145 272.094 210.332 271.533 210.145 270.973C210.706 270.225 211.641 267.794 209.958 268.355C211.828 267.233 212.201 265.364 212.762 263.307C212.949 262.559 212.201 262.372 211.267 263.681C210.145 265.551 208.275 266.672 206.032 267.233C205.845 266.859 206.406 266.673 206.78 265.925C207.153 264.99 206.967 264.429 206.593 264.242C206.219 264.055 205.658 265.177 205.471 265.364C204.536 266.112 203.788 266.859 202.853 267.607C201.919 268.355 201.358 269.103 200.984 270.225C200.984 270.412 200.423 272.468 201.358 272.094" fill="#FFE1BD"/>
<path d="M146.578 293.969C155.365 293.782 171.257 292.286 173.5 291.912C182.101 290.23 203.975 275.273 203.975 275.273C203.975 275.273 204.349 271.72 200.984 270.786C195.375 275.273 175.557 281.069 172.94 282.564C171.257 283.686 143.4 282.377 143.4 282.377" fill="#FFE1BD"/>
<path d="M117.038 282.938C117.038 282.938 113.299 293.034 111.99 301.073L121.151 302.569V289.669" fill="#F9B253"/>
<path d="M165.648 332.67L93.1069 345.009C92.359 345.196 91.4242 344.635 91.4242 343.701L84.8805 304.626C84.6936 303.878 85.2545 302.943 86.1893 302.943L158.73 290.604C159.478 290.417 160.413 290.977 160.413 291.912L166.957 330.987C166.957 331.735 166.396 332.483 165.648 332.67Z" fill="#2C1E56"/>
<path d="M163.217 330.052L94.6026 342.018C93.8547 342.205 93.2939 341.644 93.1069 340.896L87.3111 306.682C87.1241 305.934 87.685 305.374 88.4329 305.187L157.048 293.221C157.796 293.034 158.356 293.595 158.543 294.343L164.339 328.557C164.339 329.305 163.778 330.052 163.217 330.052Z" fill="#39297F"/>
<path d="M98.1548 338.84L97.0331 339.027C96.4722 339.214 95.9113 338.653 95.7243 338.092L90.6764 308.739C90.4894 308.178 91.0503 307.617 91.6112 307.43L92.7329 307.243C93.2938 307.056 93.8547 307.617 94.0417 308.178L99.0897 337.531C99.0897 338.092 98.7157 338.653 98.1548 338.84Z" fill="#4C4199"/>
<path d="M104.325 337.718L103.203 337.905C102.642 338.092 102.081 337.531 101.894 336.97L96.8461 307.617C96.6592 307.056 97.22 306.495 97.7809 306.308L98.9027 306.121C99.4636 305.934 100.024 306.495 100.211 307.056L105.259 336.409C105.259 336.97 104.885 337.531 104.325 337.718Z" fill="#4C4199"/>
<path d="M110.494 336.409L109.373 336.596C108.812 336.783 108.251 336.222 108.064 335.661L103.016 306.308C102.829 305.747 103.39 305.187 103.951 305L105.072 304.813C105.633 304.626 106.194 305.187 106.381 305.747L111.429 335.1C111.429 335.848 111.055 336.409 110.494 336.409Z" fill="#4C4199"/>
<path d="M116.664 335.287L115.542 335.474C114.981 335.661 114.42 335.1 114.233 334.54L109.186 305.187C108.999 304.626 109.559 304.065 110.12 303.878L111.242 303.691C111.803 303.504 112.364 304.065 112.551 304.626L117.599 333.979C117.599 334.726 117.225 335.287 116.664 335.287Z" fill="#4C4199"/>
<path d="M122.834 334.166L121.712 334.353C121.151 334.54 120.59 333.979 120.403 333.418L115.355 304.065C115.168 303.504 115.729 302.943 116.29 302.756L117.412 302.569C117.973 302.382 118.534 302.943 118.721 303.504L123.769 332.857C123.769 333.418 123.395 333.979 122.834 334.166Z" fill="#4C4199"/>
<path d="M128.817 332.857L127.695 333.044C127.134 333.231 126.573 332.67 126.386 332.109L121.338 302.756C121.151 302.195 121.712 301.634 122.273 301.447L123.395 301.26C123.956 301.073 124.516 301.634 124.703 302.195L129.751 331.548C129.938 332.296 129.564 332.857 128.817 332.857Z" fill="#4C4199"/>
<path d="M134.986 331.735L133.864 331.922C133.304 332.109 132.743 331.548 132.556 330.987L127.508 301.634C127.321 301.073 127.882 300.513 128.443 300.326L129.564 300.139C130.125 299.952 130.686 300.513 130.873 301.073L135.921 330.426C136.108 331.174 135.734 331.735 134.986 331.735Z" fill="#4C4199"/>
<path d="M141.156 330.613L140.034 330.8C139.473 330.987 138.912 330.426 138.726 329.866L133.678 300.513C133.491 299.952 134.051 299.391 134.612 299.204L135.734 299.017C136.295 298.83 136.856 299.391 137.043 299.952L142.091 329.305C142.278 329.865 141.904 330.426 141.156 330.613Z" fill="#4C4199"/>
<path d="M147.326 329.492L146.204 329.679C145.643 329.865 145.082 329.305 144.895 328.744L139.847 299.391C139.66 298.83 140.221 298.269 140.782 298.082L141.904 297.895C142.465 297.708 143.026 298.269 143.213 298.83L148.261 328.183C148.448 328.744 148.074 329.305 147.326 329.492Z" fill="#4C4199"/>
<path d="M153.495 328.183L152.374 328.37C151.813 328.557 151.252 327.996 151.065 327.435L146.017 298.082C145.83 297.521 146.391 296.96 146.952 296.773L148.074 296.586C148.634 296.399 149.195 296.96 149.382 297.521L154.43 326.874C154.617 327.622 154.243 328.183 153.495 328.183Z" fill="#4C4199"/>
<path d="M159.665 327.061L158.543 327.248C157.983 327.435 157.422 326.874 157.235 326.313L152.187 296.96C152 296.399 152.561 295.839 153.122 295.652L154.243 295.465C154.804 295.278 155.365 295.839 155.552 296.399L160.6 325.752C160.787 326.313 160.413 326.874 159.665 327.061Z" fill="#4C4199"/>
<path d="M123.395 325.378C116.851 330.987 114.234 340.335 115.729 350.431C116.103 353.049 118.721 360.34 119.095 362.958C120.029 368.94 121.899 377.915 121.899 384.645C130.686 391.002 148.634 390.441 156.674 385.767C157.609 377.541 157.422 370.81 156.861 359.405C155.926 342.018 148.074 325.752 148.074 324.444" fill="#594A5F"/>
<path d="M147.513 308.739C147.139 311.917 147.513 316.591 147.887 321.826C147.887 322.761 148.448 324.444 148.261 325.378C148.261 325.939 148.074 326.313 147.513 326.687C146.578 327.622 144.708 328.183 142.652 328.557C136.108 329.679 125.825 328.931 122.834 329.492C120.029 330.053 117.225 329.118 117.225 327.435C117.225 326.313 118.347 325.565 118.347 323.322C118.534 318.274 118.347 307.056 117.412 302.008C115.542 291.351 114.981 284.995 116.29 273.216L136.108 267.607C137.604 267.794 137.043 272.468 138.539 272.842C139.66 273.029 146.017 279.012 147.7 286.117C148.821 287.986 149.569 289.482 149.943 290.791C150.878 293.221 150.691 294.904 149.943 297.147C149.195 301.073 148.074 304.065 147.513 308.739Z" fill="#F9B253"/>
<path d="M147.513 308.739C147.139 311.917 147.513 316.591 147.887 321.826C147.887 322.761 148.448 324.444 148.261 325.378C148.261 325.939 148.074 326.313 147.513 326.687C148.074 325.378 146.765 318.835 146.017 315.096C145.456 311.356 145.643 304.252 146.952 299.765C148.261 295.278 148.821 293.221 148.821 293.221C148.821 293.221 149.756 291.725 150.504 290.604C151.439 293.034 151.252 294.717 150.504 296.96C149.195 301.073 148.074 304.065 147.513 308.739Z" fill="#F29127"/>
<path d="M145.456 277.329C145.456 277.329 148.448 276.581 151.252 278.264C155.178 280.508 163.031 281.816 163.031 281.816C163.031 281.816 163.591 290.977 162.657 294.53C162.657 294.53 160.039 294.156 152.187 294.904C143.96 295.838 133.117 301.26 133.117 301.26" fill="#F9B253"/>
<path d="M145.456 246.481C143.587 242.741 140.408 237.506 132.93 238.254C125.451 239.002 119.281 243.676 119.281 249.285C119.281 254.894 123.208 261.438 124.516 265.364C126.012 269.29 125.264 274.899 125.264 274.899L141.717 274.338C141.717 274.338 141.343 269.29 142.278 267.42C142.839 266.299 145.082 264.429 147.513 262.372C148.634 261.438 149.569 259.568 148.821 256.763C147.887 252.463 147.513 250.407 146.765 249.098C146.765 247.789 146.017 247.228 145.456 246.481Z" fill="#FFE1BD"/>
<path d="M145.269 276.208C144.334 275.086 142.839 274.525 141.904 273.216C141.156 272.094 140.595 270.225 140.782 268.729C140.969 267.794 141.343 267.046 141.717 266.299C143.587 262.746 143.587 260.316 141.156 257.511C140.408 256.577 139.473 255.642 139.099 254.333C138.726 253.211 138.352 252.089 139.473 251.342C140.221 250.968 140.782 250.781 141.343 251.342C141.717 251.716 142.839 255.081 143.213 252.837C143.4 250.594 144.334 250.033 142.278 245.92C142.091 245.359 140.969 243.489 141.156 243.115C143.774 243.676 144.521 244.237 145.643 245.92C146.765 244.611 143.4 235.263 133.304 235.637C130.686 235.637 128.069 235.824 125.825 236.946C123.582 238.067 120.964 240.124 121.151 242.18C117.599 242.928 117.038 246.481 116.664 247.976C116.29 249.846 116.103 251.902 116.477 253.959C116.851 256.95 117.973 259.755 118.534 262.559C119.095 264.99 119.095 267.607 118.16 269.851C117.225 272.094 115.168 273.216 114.047 275.273C112.738 277.89 112.738 281.255 114.234 283.873C115.729 286.49 117.412 288.36 117.038 291.538C116.851 292.66 115.916 297.521 120.59 301.634C122.46 303.317 126.012 304.065 128.443 303.691C130.873 303.317 132.743 302.756 134.799 301.634C138.539 299.578 142.091 298.269 144.521 292.66C145.83 289.482 143.96 289.108 145.082 285.93C145.83 284.06 147.326 282.564 147.513 280.695C146.952 279.386 146.391 277.703 145.269 276.208C145.269 276.394 145.269 276.208 145.269 276.208Z" fill="#00215B"/>
<path opacity="0.3" d="M499.001 420.542C498.44 419.794 497.879 419.046 497.318 418.298C496.944 417.924 496.57 417.55 496.196 416.99C489.653 409.137 489.279 402.594 489.279 402.407C489.092 393.619 489.092 381.28 488.905 372.493C488.905 370.062 488.905 367.819 488.905 366.136C488.905 365.388 488.905 364.827 488.905 364.266C488.905 364.266 489.092 363.519 489.092 362.584C489.279 361.649 489.466 360.527 489.653 359.592C489.84 358.658 490.026 357.536 490.213 356.227C490.587 353.423 490.774 350.057 490.213 346.505C491.335 346.505 492.457 346.879 493.392 347.253C493.392 347.253 492.083 342.579 490.774 336.97C490.213 334.913 489.839 332.857 489.279 330.987C488.344 327.061 487.596 323.322 487.596 321.078C487.222 316.404 488.718 309.674 489.466 302.008C489.653 300.139 489.839 298.269 490.026 296.399C490.213 294.53 490.213 292.847 490.213 290.977C490.213 290.417 490.213 289.856 490.213 289.295C490.026 284.434 488.905 280.321 487.222 276.581C487.035 276.021 486.661 275.46 486.474 274.899C484.792 271.533 482.735 268.542 480.491 265.738C479.744 263.681 478.809 262.933 478.809 262.933C478.061 260.503 478.248 257.324 478.248 257.324C481.052 256.203 483.857 245.359 482.548 237.506C482.548 236.946 482.361 236.572 482.361 236.198C480.678 229.28 476.378 226.663 473.013 227.224C465.908 218.623 455.252 227.971 452.821 229.28C449.83 230.776 446.651 231.711 444.221 232.085C443.473 232.085 442.912 232.272 442.351 232.272C441.79 232.272 441.416 232.272 441.043 232.085C441.603 239.376 444.221 242.741 447.586 244.05C448.334 244.424 449.082 244.611 449.83 244.611C450.391 244.611 451.138 244.611 451.699 244.611C451.512 245.172 451.512 246.481 452.821 248.537C453.008 248.724 453.569 249.098 453.756 249.472C454.13 250.594 453.756 251.529 453.756 252.463V252.65C453.569 253.398 453.382 254.52 453.195 255.455C453.195 256.016 453.008 256.577 453.008 256.95C453.008 257.324 453.008 257.698 453.195 257.885C453.382 258.446 454.13 258.633 454.878 258.633C455.252 258.633 455.439 258.633 455.812 258.633C455.999 258.82 455.999 259.194 456.186 259.381C457.121 261.438 458.43 263.307 459.926 264.803C460.3 264.99 460.86 265.177 461.234 265.177C463.291 265.364 466.095 264.803 468.9 263.681C469.274 264.429 469.461 265.177 469.461 265.925C468.713 266.112 468.339 266.299 468.339 266.299C468.152 267.607 468.339 270.412 468.339 270.412C467.778 270.786 467.404 271.346 467.03 271.72C466.843 272.094 466.469 272.281 466.282 272.655C466.095 272.842 466.095 273.029 465.908 273.216C462.917 277.89 460.487 283.499 458.617 289.482C457.869 291.725 457.121 294.156 456.56 296.586C456.56 296.586 456.56 296.586 456.56 296.773C456.186 296.773 455.812 296.96 455.439 296.96C450.391 297.895 441.603 299.578 432.255 302.195L429.638 302.943V303.317C428.142 303.317 425.899 303.13 424.59 303.317C423.655 303.317 421.972 305 420.29 306.495C418.981 307.991 417.672 309.487 418.046 309.674H418.233C418.607 309.674 418.981 309.3 419.542 308.926C419.729 308.926 419.916 308.926 420.29 308.926C421.038 308.739 421.972 307.43 422.533 307.056C422.72 306.869 423.281 306.495 423.842 306.308C424.403 306.308 424.964 306.121 425.525 306.308C425.712 306.682 425.525 307.056 425.151 307.243C424.777 307.617 423.655 307.617 423.468 307.991C423.468 308.365 423.468 308.926 424.964 308.552C426.46 308.178 427.581 307.617 428.142 307.243C428.703 306.869 429.077 306.682 430.386 306.495V307.056C430.386 307.056 441.977 307.243 452.821 306.869C453.382 306.869 453.943 306.869 454.504 306.869C454.317 307.804 454.13 308.552 454.13 309.487C453.943 309.487 453.756 309.487 453.382 309.487L449.456 309.674C449.456 309.674 449.269 309.674 449.082 309.674H412.437L409.82 302.195L407.763 296.586L405.146 289.482L400.472 276.581C400.285 276.021 399.537 275.647 398.976 275.834L398.415 276.021C397.854 276.207 397.48 276.955 397.667 277.516L401.968 289.482L404.585 296.586L406.642 302.195L409.446 309.861C408.511 309.113 408.137 309.113 408.137 309.861C408.324 310.795 409.446 312.291 409.446 312.291C410.381 313.413 410.568 313.787 412.437 314.722C413.372 315.282 415.803 315.843 417.111 316.03C417.672 316.217 418.42 316.03 418.981 316.03C419.729 315.843 420.851 315.656 422.346 315.656V316.778C422.346 316.778 434.312 318.087 442.538 319.209C445.904 319.77 449.269 319.957 452.447 320.143C452.447 321.078 452.26 321.826 452.073 322.761C451.699 325.752 451.512 328.744 451.325 331.361C451.138 333.418 450.951 335.474 450.951 337.344C450.578 345.383 450.391 350.805 450.204 351.553C450.204 351.553 451.325 352.675 454.878 352.862C454.878 353.61 455.065 354.357 455.065 355.105C454.878 356.227 454.691 360.714 454.13 366.51C453.943 368.567 453.756 370.623 453.756 372.867C453.195 382.028 452.447 392.311 451.886 397.919C451.699 398.48 451.512 399.415 451.512 400.724C451.512 401.285 451.512 407.642 451.512 408.389C451.699 411.381 451.886 416.055 452.26 421.664H467.217C467.217 421.103 467.03 420.542 466.843 419.981C466.843 419.794 466.843 419.607 466.656 419.42C466.656 419.046 466.656 418.672 466.469 418.111C465.721 411.194 465.534 413.063 467.591 404.276C468.526 401.659 469.835 398.667 471.143 395.489C473.2 402.781 474.883 408.95 475.63 412.689C475.63 412.876 475.63 413.063 475.817 413.25C475.817 413.437 476.004 413.811 476.191 414.185C476.191 414.185 476.191 414.372 476.378 414.559C476.565 415.12 476.939 415.681 477.313 416.242C478.248 417.55 479.37 419.42 480.678 421.477H499.748C499.188 421.103 499.188 420.729 499.001 420.542Z" fill="#5FB0E7"/>
<g opacity="0.5">
<path opacity="0.5" d="M417.298 484.109C417.298 485.791 443.099 487.287 474.695 487.287C506.479 487.287 532.093 485.978 532.093 484.109C532.093 482.426 506.292 480.93 474.695 480.93C443.099 480.93 417.298 482.426 417.298 484.109Z" fill="#00A4D6"/>
</g>
<path d="M449.83 468.03C449.83 468.03 449.456 476.07 450.017 477.939C450.391 479.435 454.878 479.622 455.438 478.687C455.999 477.939 456.747 468.404 456.747 468.404" fill="#FFE1BD"/>
<path d="M456.747 480.183C456.747 481.678 456.373 484.296 456.373 484.296H450.952L450.765 483.361C450.765 483.361 448.895 484.296 447.586 484.296H442.912C439.547 484.296 437.49 483.922 437.49 483.174C437.116 480.744 441.229 480.744 442.164 480.744C445.156 480.744 448.521 479.248 449.269 477.752C449.83 476.63 449.643 476.256 450.204 476.63C450.204 476.63 450.765 476.817 451.138 477.378C451.699 478.5 452.821 479.061 453.943 478.874C454.691 478.687 455.252 478.5 455.813 477.939C455.626 478.126 456.747 478.5 456.747 480.183Z" fill="#3A3A3A"/>
<path d="M507.227 468.965C507.227 468.965 508.722 473.078 509.47 474.387C510.218 475.696 514.518 474.013 514.892 473.078C515.079 472.143 511.527 465.226 511.527 465.226" fill="#FFE1BD"/>
<path d="M516.388 473.826C516.949 475.322 517.884 478.126 517.884 478.126L513.771 480.557L513.023 479.996C513.023 479.996 512.088 481.491 510.779 482.239C509.844 482.8 507.788 483.735 506.666 483.922C502.927 484.857 499.935 484.296 499.561 483.922C498.253 481.678 503.301 480.557 504.422 480.183C507.227 479.061 508.536 476.257 508.723 474.574C508.723 473.265 508.536 473.078 509.096 473.078C509.096 473.078 510.405 472.891 511.153 474.761C511.153 474.761 514.144 474.2 514.892 472.33C514.518 472.517 515.827 472.517 516.388 473.826Z" fill="#3A3A3A"/>
<path d="M483.857 364.266C483.857 364.266 484.23 361.462 484.604 359.592C485.726 353.797 487.409 342.205 478.061 333.044C478.061 333.044 466.843 338.092 458.056 338.653C450.951 339.214 449.456 338.653 449.456 338.653C449.456 338.653 449.082 348.188 451.886 371.932L483.857 364.266Z" fill="#594A5F"/>
<path d="M513.77 467.095C509.47 469.713 506.666 470.648 506.666 470.648L505.918 469.526C505.544 468.591 504.983 467.843 504.422 466.908C504.422 466.908 504.422 466.908 504.422 466.721C502.927 463.917 501.057 460.926 499.187 457.934C489.278 441.669 476.565 423.346 472.078 416.242C471.704 415.681 471.33 415.12 471.143 414.559C471.143 414.372 471.143 414.372 470.956 414.185C470.769 413.811 470.769 413.437 470.582 413.25C470.582 413.063 470.582 412.877 470.395 412.69C470.208 411.381 470.582 410.259 471.33 409.511C471.517 409.324 471.704 409.137 471.891 408.95C474.322 407.268 479.183 407.642 483.109 410.446C483.296 410.633 483.483 410.82 483.67 410.82C483.857 410.82 483.857 411.007 484.044 411.007C487.409 413.437 490.961 416.616 493.579 420.729C503.114 434.377 508.535 455.317 513.77 467.095Z" fill="#594A5F"/>
<path d="M484.417 412.316C484.604 419.981 481.8 421.664 478.622 420.916C478.061 420.729 477.5 420.542 477.126 420.355C475.069 419.42 473.013 417.55 471.891 415.681C471.704 415.307 471.33 414.933 471.143 414.372C471.143 414.185 471.143 414.185 470.956 413.998C470.769 413.624 470.769 413.25 470.582 413.063C470.582 412.876 470.582 412.689 470.395 412.503C469.648 408.763 467.778 402.22 465.721 394.554C464.413 390.254 463.104 385.58 461.795 380.906C457.682 366.884 453.943 353.049 453.943 349.123C454.317 334.727 471.143 346.131 479.183 351.74C482.548 354.171 483.483 358.284 483.483 362.023C483.483 365.575 483.857 400.911 484.044 410.633C484.044 410.82 484.044 411.194 484.044 411.381C484.418 411.942 484.417 412.129 484.417 412.316Z" fill="#594A5F"/>
<path d="M484.23 402.407C484.23 402.407 484.604 409.885 492.27 418.298C492.27 418.298 481.239 414.933 480.491 414.372C479.93 413.811 477.126 406.707 477.126 405.772C477.313 405.024 484.23 402.407 484.23 402.407Z" fill="#594A5F"/>
<path d="M504.423 466.721C502.927 463.917 501.057 460.926 499.188 457.934C489.279 441.669 476.565 423.346 472.078 416.242C471.704 415.681 471.33 415.12 471.143 414.559C471.143 414.372 471.143 414.372 470.956 414.185C470.769 413.811 470.769 413.437 470.582 413.25C470.582 413.063 470.582 412.876 470.395 412.69C469.648 408.95 467.778 402.407 465.721 394.741L478.435 360.714H483.109C483.109 360.714 477.874 376.419 475.817 383.523C473.761 390.628 473.2 401.659 473.013 405.772C472.639 414.746 483.483 429.703 486.661 435.312C490.026 440.921 503.301 464.478 504.423 466.721Z" fill="#4C4051"/>
<path d="M456.747 474.574C456.56 474.574 456.373 474.574 455.999 474.574C451.325 474.574 448.708 474.013 448.708 474.013V472.704C449.082 452.138 446.838 418.672 446.464 408.016C446.464 407.268 446.464 400.911 446.464 400.35C446.277 391.189 455.439 399.415 458.804 406.52C459.552 408.202 460.113 410.072 460.673 411.942C461.234 414.372 461.234 416.99 461.795 419.607C465.347 435.686 458.243 461.3 456.747 474.574Z" fill="#594A5F"/>
<path d="M478.435 364.266C478.435 364.453 463.291 401.846 460.299 410.072C459.925 411.194 458.43 412.129 456.747 412.503C452.634 413.437 446.651 411.942 446.464 403.715C446.464 402.781 446.464 401.846 446.651 400.724C447.399 394.18 449.643 358.097 450.016 354.731C450.39 351.179 451.138 346.131 453.008 345.57C462.169 342.766 481.239 351.179 478.435 364.266Z" fill="#594A5F"/>
<path d="M462.73 403.528C460.673 413.063 460.673 410.82 461.608 417.924C462.356 424.842 459.365 411.755 459.365 411.755L461.234 406.894L462.73 403.528Z" fill="#594A5F"/>
<path d="M420.851 304.813C420.851 304.813 418.794 304.439 418.607 304.626C418.42 304.813 417.859 305.187 417.859 305.187V305.56H417.672C417.485 305.56 416.177 306.495 415.99 306.682C415.803 306.869 414.12 308.739 414.12 308.739C414.12 308.739 414.494 308.926 415.055 308.739C415.616 308.552 416.737 307.243 417.298 306.869C417.485 306.682 418.046 306.308 418.607 306.121C419.355 305.934 420.29 305.934 420.851 306.495C421.412 307.43 420.851 304.813 420.851 304.813Z" fill="#F4D4B3"/>
<path d="M430.199 301.821C430.199 301.821 426.459 302.943 425.338 303.13C424.216 303.317 421.037 302.943 419.355 303.13C418.42 303.13 416.737 304.813 415.055 306.308C413.746 307.804 412.437 309.3 412.811 309.487C413.559 310.048 415.429 307.43 417.111 306.308C418.233 305.374 419.355 305.561 419.916 305.934C420.477 306.308 420.29 306.869 419.729 307.243C419.355 307.617 418.233 307.617 418.046 307.991C418.046 308.365 418.046 308.926 419.542 308.552C421.038 308.178 422.159 307.617 422.72 307.243C423.281 306.869 423.655 306.682 424.964 306.495C426.085 306.308 431.694 305.374 431.694 305.374" fill="#FFE1BD"/>
<path d="M454.317 296.025L453.195 305.747L453.008 306.682C452.634 306.682 452.447 306.682 452.073 306.682C450.577 306.682 449.082 306.682 447.586 306.869C436.742 307.056 425.151 307.056 425.151 307.056L424.403 302.756C434.686 299.765 444.782 297.708 450.391 296.773C452.821 296.399 454.317 296.025 454.317 296.025Z" fill="#F9B253"/>
<path d="M406.641 311.169L406.268 311.356C405.707 311.543 404.959 311.169 404.772 310.608L392.806 277.516C392.619 276.955 392.993 276.208 393.554 276.021L393.928 275.834C394.489 275.647 395.237 276.021 395.424 276.581L407.389 309.674C407.576 310.235 407.202 310.982 406.641 311.169Z" fill="#1C44B5"/>
<path d="M443.847 312.478H406.268C405.52 312.478 404.959 311.917 404.959 311.169V310.982C404.959 310.235 405.52 309.674 406.268 309.674H443.847C444.595 309.674 445.156 310.235 445.156 310.982V311.169C445.343 311.917 444.595 312.478 443.847 312.478Z" fill="#1C44B5"/>
<path d="M454.317 296.025L453.195 305.747C452.821 306.121 452.447 306.495 452.073 306.682C450.578 306.682 449.082 306.682 447.586 306.869C448.334 302.756 449.83 298.082 450.391 296.586C452.821 296.399 454.317 296.025 454.317 296.025Z" fill="#F29127"/>
<path d="M488.344 347.44C483.483 345.383 476.004 347.627 462.169 350.992C448.147 354.357 445.343 351.366 445.343 351.366C445.903 350.244 445.716 337.905 447.212 322.574C447.586 319.209 447.96 315.843 448.521 312.291C450.577 298.082 454.317 282.938 461.421 272.655C464.787 267.42 474.696 264.99 474.696 264.99C480.117 271.533 485.352 279.386 485.352 291.164C485.352 302.943 482.174 314.535 482.735 321.265C482.922 327.996 488.344 347.44 488.344 347.44Z" fill="#F9B253"/>
<path d="M459.178 322.387C456.373 322.761 452.073 322.761 447.212 322.574C447.586 319.209 447.96 315.843 448.521 312.291H448.895C451.512 312.291 453.756 310.421 454.317 307.991C455.251 304.439 456.747 299.017 459.178 291.538C463.291 278.451 467.778 277.89 467.778 277.89C467.778 277.89 474.135 274.525 474.509 281.629C474.696 288.36 467.404 321.265 459.178 322.387Z" fill="#F29127"/>
<path d="M477.687 366.136C477.687 366.136 482.361 364.453 485.165 356.227L482.174 350.992L476.004 353.797C476.004 353.797 474.883 359.405 475.256 359.779C475.443 360.153 477.687 366.136 477.687 366.136Z" fill="#594A5F"/>
<path d="M419.916 314.535L419.542 310.982C419.542 310.982 416.364 311.356 414.868 311.169C413.372 310.982 411.689 310.235 409.446 309.861C407.202 309.487 406.828 310.235 407.202 310.795C407.576 311.356 410.007 311.73 410.007 311.73C410.007 311.73 410.381 312.104 409.072 312.104H407.763C407.202 311.917 406.268 311.356 406.081 311.356C405.894 311.169 405.52 310.795 405.333 310.608C403.837 309.113 403.089 308.552 403.089 309.674C403.276 310.608 404.398 312.104 404.398 312.104C405.333 313.226 405.52 313.6 407.389 314.535C408.324 315.096 410.755 315.656 412.063 315.843C412.624 316.03 413.372 316.03 413.933 315.843C414.681 315.656 416.177 315.469 418.046 315.283C419.168 315.283 419.916 315.283 419.916 315.283C422.72 315.469 421.225 314.909 419.916 314.535Z" fill="#FFE1BD"/>
<path d="M467.03 275.273C467.03 275.273 462.73 275.834 458.43 288.921C455.999 296.212 454.504 301.821 453.569 305.374C452.821 307.804 450.764 309.674 448.147 309.674L417.485 310.421L417.298 316.591C417.298 316.591 429.264 317.9 437.49 319.022C445.716 320.144 453.943 320.33 458.243 319.77C466.469 318.835 474.508 282.751 474.135 279.199C473.574 273.403 467.03 275.273 467.03 275.273Z" fill="#F9B253"/>
<path d="M446.838 244.424C446.838 244.424 446.09 245.92 447.773 248.724C447.96 248.911 448.521 249.285 448.708 249.659C449.082 250.781 448.708 251.903 448.708 252.837C450.017 257.511 452.073 261.811 454.878 264.803C457.869 266.112 463.665 264.055 468.526 261.438C469.648 261.438 475.256 258.446 474.509 250.22C473.761 241.994 467.217 234.515 466.843 234.328C466.469 234.141 453.756 236.572 453.195 236.572C452.634 236.572 446.838 244.424 446.838 244.424Z" fill="#FFD1AB"/>
<path d="M465.16 247.602C465.16 247.602 461.795 246.855 461.608 242.554C461.421 238.254 460.86 238.067 458.243 240.498C455.625 242.928 437.49 252.463 435.994 232.272C438.051 232.832 443.099 231.898 447.773 229.654C450.203 228.532 460.86 218.997 467.965 227.598C471.517 227.037 476.191 230.028 477.5 237.88C478.809 245.733 476.004 256.577 473.2 257.698C471.33 258.446 470.582 256.577 469.834 252.837C469.461 250.968 474.508 247.228 469.274 242.367C467.03 240.872 462.543 243.489 465.16 247.602Z" fill="#2C1E56"/>
<path d="M473.2 257.698C473.2 257.698 472.639 263.307 474.882 265.177C471.704 269.103 464.413 269.664 464.413 269.664C464.413 269.664 466.095 267.046 462.356 260.129C458.617 253.211 473.2 257.698 473.2 257.698Z" fill="#FFD1AB"/>
<path d="M463.291 270.225C463.291 270.225 463.104 267.42 463.291 266.112C463.291 266.112 470.208 263.681 473.574 263.12C473.574 263.12 474.696 263.868 475.256 265.925C475.443 265.925 468.339 269.477 463.291 270.225Z" fill="#F9B253"/>
<path d="M448.895 251.529C448.895 251.529 447.773 256.764 448.147 257.885C448.521 259.194 451.699 258.259 451.699 258.259L448.895 251.529Z" fill="#FFD1AB"/>
<path d="M562.381 217.689H408.885C406.081 217.689 403.65 215.258 403.65 212.454V144.4C403.65 141.595 406.081 139.165 408.885 139.165H562.381C565.185 139.165 567.615 141.595 567.615 144.4V212.454C567.615 215.258 565.185 217.689 562.381 217.689Z" fill="#5FB0E7"/>
<path d="M563.876 140.473V208.901C563.876 211.706 561.633 213.949 558.828 213.949H404.959C402.155 213.949 399.911 211.706 399.911 208.901V140.473C399.911 137.669 402.155 135.425 404.959 135.425H558.828C561.633 135.425 563.876 137.669 563.876 140.473Z" fill="white"/>
<path d="M563.876 140.473V150.382H399.911V140.473C399.911 137.669 402.155 135.425 404.959 135.425H558.828C561.633 135.425 563.876 137.669 563.876 140.473Z" fill="#AEC1FF"/>
<path opacity="0.5" d="M557.52 158.609V205.91H406.268V190.766C412.437 182.353 420.664 176.744 439.734 188.149C458.056 198.992 458.056 164.031 478.996 165.9C499.935 167.77 505.544 198.992 521.81 175.061C538.076 151.13 557.52 158.609 557.52 158.609Z" fill="#AEC1FF"/>
<path opacity="0.5" d="M435.995 158.422H406.268V160.478H435.995V158.422Z" fill="#AEC1FF"/>
<path opacity="0.5" d="M456.56 161.974H406.268V164.031H456.56V161.974Z" fill="#AEC1FF"/>
<path opacity="0.5" d="M444.034 165.526H406.268V167.583H444.034V165.526Z" fill="#AEC1FF"/>
<path opacity="0.5" d="M451.886 169.265H406.268V171.322H451.886V169.265Z" fill="#AEC1FF"/>
<path opacity="0.5" d="M435.995 172.818H406.268V174.874H435.995V172.818Z" fill="#AEC1FF"/>
<path d="M184.344 114.86C177.427 133.369 159.665 146.643 138.725 146.643C117.786 146.643 99.8375 133.369 93.1069 114.86H184.344Z" fill="#5FB0E7"/>
<path d="M93.6677 66.4366C88.2459 74.289 84.8806 84.011 84.8806 94.2939C84.8806 99.9027 85.8154 105.138 87.498 110.186L133.678 94.2939L93.6677 66.4366Z" fill="#18BDF7"/>
<path d="M140.595 41.0098V89.8068L176.492 122.899C184.531 114.299 189.392 102.707 189.392 89.8068C189.392 62.6973 167.518 41.0098 140.595 41.0098Z" fill="#18BDF7"/>
<path d="M133.678 45.4969C117.038 45.4969 102.455 53.7232 93.6677 66.4366L133.678 94.2938V45.4969Z" fill="#F9B253"/>
<path d="M124.516 142.156C127.508 142.717 130.499 143.091 133.491 143.091C147.7 143.091 160.413 137.108 169.387 127.386L133.491 94.2938L124.516 142.156Z" fill="#B8ECFF"/>
<path d="M87.498 109.999C93.1069 126.451 107.129 138.791 124.516 141.969L133.491 94.1069L87.498 109.999Z" fill="#15A7CE"/>
<path d="M109.746 221.054H44.6838C42.8142 221.054 41.5055 222.549 41.5055 224.232V244.798C41.5055 246.668 43.0012 247.976 44.6838 247.976H98.5288C98.7158 250.22 100.398 254.333 108.064 254.333C108.064 254.333 104.885 253.772 104.138 247.976H109.56C111.429 247.976 112.738 246.481 112.738 244.798V224.232C112.925 222.549 111.616 221.054 109.746 221.054Z" fill="#5FB0E7"/>
<path d="M108.625 219.558H43.5621C41.6925 219.558 40.3837 221.054 40.3837 222.736V243.302C40.3837 245.172 41.8794 246.481 43.5621 246.481H97.407C97.594 248.724 99.2766 252.837 106.942 252.837C106.942 252.837 103.764 252.276 103.016 246.481H108.438C110.307 246.481 111.616 244.985 111.616 243.302V222.736C111.803 220.867 110.307 219.558 108.625 219.558Z" fill="#EBFAFF"/>
<path d="M108.064 224.793H43.5621C43.0012 224.793 42.4403 224.419 42.4403 223.671V222.923C42.4403 222.363 42.8142 221.802 43.5621 221.802H108.064C108.625 221.802 109.186 222.176 109.186 222.923V223.671C109.186 224.232 108.625 224.793 108.064 224.793Z" fill="#B2EBF9"/>
<path d="M108.064 229.467H43.5621C43.0012 229.467 42.4403 229.093 42.4403 228.345V227.598C42.4403 227.037 42.8142 226.476 43.5621 226.476H108.064C108.625 226.476 109.186 226.85 109.186 227.598V228.345C109.186 229.093 108.625 229.467 108.064 229.467Z" fill="#B2EBF9"/>
<path d="M108.064 234.141H43.5621C43.0012 234.141 42.4403 233.767 42.4403 233.019V232.272C42.4403 231.711 42.8142 231.15 43.5621 231.15H108.064C108.625 231.15 109.186 231.524 109.186 232.272V233.019C109.186 233.767 108.625 234.141 108.064 234.141Z" fill="#B2EBF9"/>
<path d="M108.064 238.815H43.5621C43.0012 238.815 42.4403 238.441 42.4403 237.693V236.946C42.4403 236.385 42.8142 235.824 43.5621 235.824H108.064C108.625 235.824 109.186 236.198 109.186 236.946V237.693C109.186 238.441 108.625 238.815 108.064 238.815Z" fill="#B2EBF9"/>
<path d="M108.064 243.489H43.5621C43.0012 243.489 42.4403 243.115 42.4403 242.367V241.62C42.4403 241.059 42.8142 240.498 43.5621 240.498H108.064C108.625 240.498 109.186 240.872 109.186 241.62V242.367C109.186 243.115 108.625 243.489 108.064 243.489Z" fill="#B2EBF9"/>
<path d="M487.596 231.337H552.659C554.528 231.337 555.837 232.832 555.837 234.515V255.081C555.837 256.95 554.341 258.259 552.659 258.259H498.814C498.627 260.503 496.944 264.616 489.279 264.616C489.279 264.616 492.457 264.055 493.205 258.259H487.783C485.913 258.259 484.605 256.763 484.605 255.081V234.515C484.418 232.645 485.913 231.337 487.596 231.337Z" fill="#5FB0E7"/>
<path d="M488.905 229.654H553.78C555.65 229.654 556.959 231.15 556.959 232.832V253.398C556.959 255.268 555.463 256.577 553.78 256.577H499.935C499.749 258.82 498.066 262.933 490.4 262.933C490.4 262.933 493.579 262.372 494.327 256.577H488.905C487.035 256.577 485.726 255.081 485.726 253.398V232.832C485.539 231.15 487.035 229.654 488.905 229.654Z" fill="#EBFAFF"/>
<path d="M536.019 253.772H553.407C554.341 253.772 554.902 253.024 554.902 252.276V234.141C554.902 233.206 554.154 232.645 553.407 232.645H536.019C535.084 232.645 534.523 233.393 534.523 234.141V252.276C534.337 253.024 535.084 253.772 536.019 253.772Z" fill="#80D4DD"/>
<path d="M489.279 235.263H530.784C531.158 235.263 531.532 234.889 531.532 234.515V233.393C531.532 233.019 531.158 232.645 530.784 232.645H489.279C488.905 232.645 488.531 233.019 488.531 233.393V234.515C488.344 234.889 488.718 235.263 489.279 235.263Z" fill="#80D4DD"/>
<path d="M498.627 239.75H530.971C531.345 239.75 531.719 239.376 531.719 239.002V237.693C531.719 237.319 531.345 236.946 530.971 236.946H498.627C498.253 236.946 497.879 237.319 497.879 237.693V239.002C497.879 239.563 498.253 239.75 498.627 239.75Z" fill="#80D4DD"/>
<path d="M489.279 244.424H530.784C531.158 244.424 531.532 244.05 531.532 243.676V242.554C531.532 242.18 531.158 241.807 530.784 241.807H489.279C488.905 241.807 488.531 242.18 488.531 242.554V243.676C488.344 244.05 488.718 244.424 489.279 244.424Z" fill="#80D4DD"/>
<path d="M492.644 249.098H530.784C531.158 249.098 531.532 248.724 531.532 248.35V247.228C531.532 246.855 531.158 246.481 530.784 246.481H492.644C492.27 246.481 491.896 246.855 491.896 247.228V248.35C491.896 248.724 492.27 249.098 492.644 249.098Z" fill="#80D4DD"/>
<path d="M515.64 253.772H531.158C531.345 253.772 531.719 253.585 531.719 253.211V251.529C531.719 251.342 531.532 250.968 531.158 250.968H515.64C515.453 250.968 515.079 251.155 515.079 251.529V253.211C515.079 253.585 515.266 253.772 515.64 253.772Z" fill="#80D4DD"/>
<path d="M366.819 114.86H301.195C301.195 114.86 301.195 113.925 301.756 112.616C303.439 108.69 309.422 100.651 331.483 97.0983L342.327 94.8547C342.327 94.8547 367.38 94.8547 366.819 114.86Z" fill="#F9B253"/>
<path d="M344.944 114.86H301.008C301.008 114.86 301.008 113.925 301.569 112.616C303.252 112.055 305.121 112.242 306.804 112.616C308.487 112.99 309.421 113.364 309.421 113.364C309.421 113.364 332.418 113.364 338.027 113.364C343.822 113.177 344.944 114.86 344.944 114.86Z" fill="#F29127"/>
<path d="M328.866 95.7895C329.613 96.7243 330.174 98.22 330.361 99.5288C330.735 101.211 332.418 102.52 334.1 102.333C343.635 101.772 343.075 95.7895 343.075 95.7895C341.018 92.7981 339.896 83.824 339.896 83.824" fill="#FFE1BD"/>
<path d="M306.43 68.3062C306.43 68.3062 306.056 80.2717 311.478 80.0847C316.9 79.8978 311.478 66.8105 311.478 66.8105L306.43 68.3062Z" fill="#2C1E56"/>
<path d="M338.588 81.5804C338.774 83.45 338.774 84.9457 338.774 86.0675C338.774 86.2545 338.774 86.4414 338.774 86.6284C338.774 86.8153 338.774 87.0023 338.588 87.1893C337.279 92.4242 330.735 99.5287 326.248 100.277C325.687 100.277 325.126 100.277 324.565 100.277C318.209 99.9027 314.469 94.6677 312.226 89.2458C312.226 89.0589 312.039 88.8719 312.039 88.685C310.169 83.45 309.608 78.2151 309.422 76.3455C309.422 75.9716 309.048 71.1106 309.982 69.8018C310.917 68.3062 323.631 66.8105 323.818 66.8105C324.005 66.8105 336.157 67.7453 336.157 67.7453C336.157 67.7453 338.027 75.4107 338.588 81.5804Z" fill="#FFE1BD"/>
<path d="M340.644 81.3935C340.831 83.2631 340.644 84.7588 340.457 85.8805C340.457 86.0675 340.457 86.2545 340.457 86.4414C339.709 91.6763 333.353 99.5287 326.248 100.277C325.687 100.277 325.126 100.464 324.752 100.464C317.087 100.837 314.469 95.0417 312.226 89.2458C312.226 89.0589 312.039 88.8719 312.039 88.685C312.039 88.685 314.656 92.9851 315.965 92.9851C317.274 93.172 315.591 91.4894 319.33 89.9937C321.574 89.0589 325.126 89.2458 326.809 89.4328C328.305 89.6198 330.922 90.3676 332.044 90.5546C332.231 90.5546 332.418 90.5546 332.605 90.5546C333.914 89.8067 336.905 84.9457 337.466 82.3283C337.279 81.0195 339.522 81.2065 340.644 81.3935Z" fill="#2C1E56"/>
<path d="M304 64.5669C304 64.5669 304.374 73.728 319.517 70.1758C323.631 69.241 327.37 68.3062 329.426 69.241C332.605 78.963 332.605 83.637 333.726 83.2631C335.035 82.7022 331.296 74.6629 336.157 75.5977C339.709 76.3455 335.97 85.1327 335.97 85.1327C335.97 85.1327 340.457 85.6936 340.457 83.637C340.457 82.3283 340.644 64.9409 337.653 60.8277C334.661 56.7145 331.109 56.9015 331.109 56.9015C331.109 56.9015 327.37 53.7232 318.396 56.3406C309.422 58.9581 304.747 55.5928 304.747 55.9667C304.747 56.1537 303.439 58.7711 304 64.5669Z" fill="#2C1E56"/>
<path d="M366.819 114.86C366.819 114.86 366.071 130.751 359.527 140.66C359.527 140.66 359.527 140.66 359.34 140.847L359.153 141.034C357.284 144.026 346.44 159.917 339.335 166.274C331.67 173.379 322.883 181.231 322.883 181.231L322.509 181.044C321.387 182.166 320.265 183.288 319.891 183.848C319.33 184.97 318.77 188.896 317.648 189.27C317.461 189.27 317.274 189.27 317.087 189.457C316.713 189.831 316.152 190.018 315.404 190.205C314.096 190.392 312.413 190.018 311.852 189.831C311.478 190.205 311.104 190.579 310.169 191.14C308.674 191.888 307.178 193.01 305.869 193.383C304.561 193.757 304.374 193.383 304.747 192.636C304.934 191.888 307.365 190.579 308.3 189.831C309.235 189.083 310.543 187.214 311.104 186.092C311.665 184.97 311.665 184.222 311.104 184.222C310.543 184.222 308.861 185.157 307.739 185.531C306.43 185.718 305.869 185.531 306.43 184.783C306.991 184.035 308.861 181.979 310.917 181.418C312.974 180.857 313.535 180.857 315.03 179.735C315.778 179.174 316.713 178.053 317.274 176.931L316.713 176.557C316.713 176.557 330.548 157.3 340.831 142.53C341.018 142.156 341.205 141.969 341.579 141.595C347.375 129.817 347.936 120.468 347.936 116.916C347.188 115.607 346.253 115.234 346.253 115.234L366.819 114.86Z" fill="#5FB0E7"/>
<path d="M317.461 174.5C317.461 174.5 315.217 178.24 313.722 179.361C312.226 180.483 311.665 180.483 309.608 181.044C307.552 181.605 305.682 183.661 305.121 184.409C304.561 185.157 305.121 185.531 306.43 185.157C307.739 184.97 309.422 183.848 309.795 183.848C310.169 183.848 310.356 184.409 309.795 185.718C309.235 186.84 307.739 188.896 306.991 189.457C306.056 190.205 303.626 191.514 303.439 192.262C303.252 193.01 303.439 193.383 304.561 193.01C305.869 192.636 307.365 191.514 308.861 190.766C309.608 190.392 309.982 189.831 310.543 189.457C311.104 189.644 312.787 190.018 314.096 189.831C314.656 189.644 315.404 189.457 315.778 189.083C315.965 189.083 316.152 189.083 316.339 188.896C317.461 188.522 318.022 184.409 318.77 183.475C319.33 182.353 323.818 178.427 323.818 178.427L317.461 174.5Z" fill="#FFE1BD"/>
<path d="M358.032 140.66C364.575 130.564 366.819 114.86 366.819 114.86L358.592 109.251L354.292 111.307C351.675 110.186 347.001 108.503 347.001 108.503L344.944 115.047C344.944 115.047 346.066 115.42 346.627 116.729C346.627 120.468 346.066 129.63 340.27 141.408C340.083 141.782 339.896 141.969 339.522 142.343C329.239 157.113 315.404 176.37 315.404 176.37L321.387 181.605C321.387 181.605 330.174 173.753 337.84 166.648C344.757 160.291 355.601 144.213 357.471 141.408L357.658 141.221C358.032 140.66 358.032 140.66 358.032 140.66Z" fill="#F9B253"/>
<path d="M312.226 118.786H312.039C312.226 118.973 312.413 119.347 312.6 119.347C312.787 119.534 312.6 119.721 312.6 119.721C312.226 120.095 312.039 120.095 311.665 119.908C311.478 119.908 311.104 119.721 310.917 119.534C310.543 119.721 310.356 119.721 309.982 119.721C309.609 119.721 309.048 119.347 308.487 118.599C308.487 118.786 308.487 118.973 308.487 118.973C308.113 119.347 307.926 119.347 307.552 119.16C307.178 119.16 306.617 118.786 306.056 118.038C305.869 117.851 305.495 117.477 305.308 117.103C304.934 116.916 304.748 116.729 304.561 116.542C304 116.168 303.439 116.168 303.252 116.168C300.073 116.168 298.765 114.673 295.026 114.673H312.226C312.226 114.673 312.226 114.673 312.039 114.673C311.852 114.673 311.478 114.86 310.917 114.86C311.104 115.047 311.291 115.42 311.478 115.607C312.226 116.355 313.161 117.477 313.348 117.664C313.535 117.851 313.348 118.038 313.348 118.038C312.787 118.786 312.6 118.786 312.226 118.786Z" fill="#5FB0E7"/>
<path d="M311.478 118.786H311.291C311.478 118.973 311.665 119.347 311.852 119.347C312.039 119.534 311.852 119.721 311.852 119.721C311.478 120.095 311.291 120.095 310.917 119.908C310.73 119.908 310.356 119.721 310.169 119.534C309.795 119.721 309.609 119.721 309.235 119.721C308.861 119.721 308.3 119.347 307.739 118.599C307.739 118.786 307.739 118.973 307.739 118.973C307.365 119.347 307.178 119.347 306.804 119.16C306.43 119.16 305.869 118.786 305.308 118.038C305.121 117.851 304.748 117.477 304.561 117.103C304.187 116.916 304 116.729 303.813 116.542C303.252 116.168 302.691 116.168 302.504 116.168C299.326 116.168 298.017 114.673 294.278 114.673C294.278 114.673 303.252 110.373 308.487 113.364C309.048 113.364 310.169 113.551 310.73 113.551C312.226 113.551 311.852 114.299 311.291 114.673C311.104 114.673 310.73 114.86 310.169 114.86C310.356 115.047 310.543 115.42 310.73 115.607C311.478 116.355 312.413 117.477 312.6 117.664C312.787 117.851 312.6 118.038 312.6 118.038C312.039 118.786 311.852 118.786 311.478 118.786Z" fill="#FFE1BD"/>
<path opacity="0.47" d="M310.917 114.86C310.73 114.86 310.356 115.047 309.795 115.047C309.795 115.047 308.487 113.738 307.926 113.551C308.487 113.551 309.609 113.738 310.169 113.738C311.852 113.738 311.291 114.673 310.917 114.86Z" fill="url(#paint3_linear)"/>
<path d="M597.716 483.735C597.716 485.605 584.442 487.1 568.176 487.1C551.911 487.1 538.636 485.605 538.636 483.735C538.636 482.426 544.993 481.304 554.341 480.744L554.902 482.613C555.089 483.361 555.837 483.922 556.585 483.922H578.085C578.833 483.922 579.581 483.361 579.768 482.613L580.329 480.744C590.612 481.304 597.716 482.426 597.716 483.735Z" fill="#00A4D6"/>
<path d="M556.211 444.473C556.211 444.473 555.276 433.816 541.254 428.768C527.419 423.533 517.51 429.703 517.51 429.703C517.51 429.703 518.819 416.99 529.849 417.55C540.88 418.111 543.124 425.216 543.124 425.216C543.124 425.216 549.106 419.046 554.341 423.533C558.641 427.272 557.894 434.938 557.894 434.938C557.894 434.938 562.007 435.499 561.446 442.042C561.446 442.79 561.259 443.538 561.072 444.286" fill="#61C5F2"/>
<path opacity="0.58" d="M556.211 444.473C556.211 444.473 555.276 433.816 541.254 428.768C527.419 423.533 517.51 429.703 517.51 429.703C517.51 429.703 518.819 416.99 529.849 417.55C540.88 418.111 543.124 425.216 543.124 425.216C543.124 425.216 549.106 419.046 554.341 423.533C558.641 427.272 557.894 434.938 557.894 434.938C557.894 434.938 562.007 435.499 561.446 442.042C561.446 442.79 561.259 443.538 561.072 444.286" fill="url(#paint4_linear)"/>
<path d="M564.063 444.286C563.876 411.194 547.237 396.424 547.05 396.424L547.611 395.863C547.798 396.05 564.624 411.007 564.811 444.473L564.063 444.286Z" fill="#39A7D8"/>
<path d="M547.985 396.798C547.985 396.798 544.432 397.172 542.376 395.489C541.254 394.741 541.067 393.059 542.002 392.124C542.75 391.002 544.432 390.815 545.367 391.75C547.611 393.432 547.985 396.798 547.985 396.798Z" fill="#39A7D8"/>
<path d="M549.293 398.106C549.293 398.106 548.919 401.659 547.05 403.341C546.115 404.276 544.432 404.089 543.684 403.154C542.75 402.22 542.937 400.537 543.871 399.789C545.928 397.919 549.293 398.106 549.293 398.106Z" fill="#39A7D8"/>
<path d="M549.293 398.107C549.293 398.107 549.854 394.554 551.911 393.059C553.033 392.311 554.528 392.498 555.276 393.619C556.024 394.741 555.837 396.237 554.715 396.985C552.659 398.667 549.293 398.107 549.293 398.107Z" fill="#39A7D8"/>
<path d="M554.341 404.837C554.341 404.837 553.593 408.202 551.537 409.698C550.415 410.446 548.919 410.072 548.172 409.137C547.424 408.015 547.798 406.52 548.919 405.772C550.976 404.089 554.341 404.837 554.341 404.837Z" fill="#39A7D8"/>
<path d="M554.154 404.837C554.154 404.837 555.089 401.472 557.333 400.163C558.454 399.415 559.95 399.976 560.698 401.098C561.446 402.22 560.885 403.715 559.763 404.463C557.52 405.772 554.154 404.837 554.154 404.837Z" fill="#39A7D8"/>
<path d="M569.485 444.286C565.746 400.35 585.938 378.849 586.125 378.663L585.377 377.915C585.19 378.102 564.624 399.976 568.55 444.286H569.485Z" fill="#258BAF"/>
<path d="M584.816 379.223C584.816 379.223 589.49 379.223 592.108 376.793C593.416 375.484 593.416 373.428 592.295 372.119C590.986 370.81 588.929 370.81 587.62 371.932C585.003 374.549 584.816 379.223 584.816 379.223Z" fill="#258BAF"/>
<path d="M583.133 381.093C583.133 381.093 584.068 385.767 586.873 387.637C588.368 388.758 590.425 388.384 591.36 386.889C592.481 385.393 592.107 383.337 590.612 382.402C587.62 380.345 583.133 381.093 583.133 381.093Z" fill="#258BAF"/>
<path d="M583.32 381.28C583.32 381.28 582.199 376.793 579.207 374.923C577.712 373.988 575.655 374.549 574.72 376.045C573.785 377.541 574.346 379.597 575.842 380.532C578.833 382.402 583.32 381.28 583.32 381.28Z" fill="#258BAF"/>
<path d="M577.338 390.628C577.338 390.628 578.646 395.115 581.825 396.798C583.32 397.733 585.377 397.172 586.312 395.489C587.246 393.993 586.686 391.937 585.003 391.002C581.825 389.319 577.338 390.628 577.338 390.628Z" fill="#258BAF"/>
<path d="M577.525 390.815C577.525 390.815 575.842 386.515 572.664 385.019C570.981 384.271 569.111 385.019 568.363 386.702C567.616 388.384 568.363 390.254 570.046 391.002C573.224 392.311 577.525 390.815 577.525 390.815Z" fill="#258BAF"/>
<path d="M573.224 401.285C573.224 401.285 575.094 405.585 578.272 407.081C579.955 407.828 581.825 407.081 582.572 405.398C583.32 403.715 582.572 401.846 580.89 401.098C577.338 399.602 573.224 401.285 573.224 401.285Z" fill="#258BAF"/>
<path d="M573.411 401.472C573.411 401.472 571.355 397.359 567.989 396.05C566.307 395.489 564.437 396.424 563.876 398.106C563.315 399.789 564.25 401.659 565.933 402.22C569.298 403.341 573.411 401.472 573.411 401.472Z" fill="#258BAF"/>
<path d="M570.233 411.755C570.233 411.755 572.663 415.681 576.029 416.616C577.711 416.99 579.581 416.055 579.955 414.185C580.329 412.503 579.394 410.633 577.524 410.259C574.159 409.324 570.233 411.755 570.233 411.755Z" fill="#258BAF"/>
<path d="M570.42 411.755C570.42 411.755 567.616 408.016 564.25 407.455C562.568 407.081 560.885 408.389 560.511 410.072C560.137 411.755 561.446 413.437 563.128 413.811C566.681 414.372 570.42 411.755 570.42 411.755Z" fill="#258BAF"/>
<path d="M568.737 422.412C568.737 422.412 571.542 426.151 575.094 426.712C576.964 426.899 578.459 425.777 578.833 423.907C579.02 422.038 577.899 420.542 576.029 420.168C572.477 419.607 568.737 422.412 568.737 422.412Z" fill="#258BAF"/>
<path d="M568.924 422.411C568.924 422.411 565.746 418.859 562.381 418.672C560.511 418.485 559.015 419.794 558.828 421.664C558.641 423.533 559.95 425.029 561.82 425.216C565.559 425.403 568.924 422.411 568.924 422.411Z" fill="#258BAF"/>
<path d="M568.363 435.312C568.363 435.312 571.168 439.051 574.72 439.612C576.59 439.799 578.085 438.677 578.459 436.808C578.646 434.938 577.524 433.442 575.655 433.068C572.103 432.694 568.363 435.312 568.363 435.312Z" fill="#258BAF"/>
<path d="M568.55 435.312C568.55 435.312 565.372 431.76 562.007 431.573C560.137 431.386 558.641 432.694 558.455 434.564C558.268 436.434 559.576 437.929 561.446 438.116C564.998 438.303 568.55 435.312 568.55 435.312Z" fill="#258BAF"/>
<path d="M572.477 444.473C572.477 444.473 566.307 424.842 579.02 421.851C579.02 421.851 579.581 395.676 598.277 402.22C598.277 402.22 601.082 391.937 611.926 392.498C622.769 393.059 622.208 403.341 622.208 403.341C622.208 403.341 632.117 404.837 632.117 413.25C632.117 413.25 583.507 399.602 579.394 444.473" fill="#61C5F2"/>
<path opacity="0.58" d="M572.477 444.473C572.477 444.473 566.307 424.842 579.02 421.851C579.02 421.851 579.581 395.676 598.277 402.22C598.277 402.22 601.082 391.937 611.926 392.498C622.769 393.059 622.208 403.341 622.208 403.341C622.208 403.341 632.117 404.837 632.117 413.25C632.117 413.25 583.507 399.602 579.394 444.473" fill="url(#paint5_linear)"/>
<path d="M545.554 448.586L554.528 482.613C554.715 483.361 555.463 483.922 556.211 483.922H578.085C578.833 483.922 579.581 483.361 579.768 482.613L588.742 448.586C589.303 446.53 587.62 444.286 585.564 444.286H548.919C546.676 444.286 544.993 446.53 545.554 448.586Z" stroke="#00BFD8" stroke-width="0.5121" stroke-miterlimit="10"/>
<path d="M579.955 448.586L573.785 480.557" stroke="#00BFD8" stroke-width="0.5121" stroke-miterlimit="10" stroke-linecap="round"/>
<defs>
<linearGradient id="paint0_linear" x1="262.481" y1="476.338" x2="203.538" y2="417.996" gradientUnits="userSpaceOnUse">
<stop stop-color="#2484C6"/>
<stop offset="1" stop-color="#2484C6" stop-opacity="0"/>
</linearGradient>
<linearGradient id="paint1_linear" x1="337.929" y1="478.66" x2="407.097" y2="413.101" gradientUnits="userSpaceOnUse">
<stop stop-color="#2484C6"/>
<stop offset="1" stop-color="#2484C6" stop-opacity="0"/>
</linearGradient>
<linearGradient id="paint2_linear" x1="56.3772" y1="268.045" x2="546.229" y2="268.045" gradientUnits="userSpaceOnUse">
<stop stop-color="#2484C6"/>
<stop offset="1" stop-color="#2484C6" stop-opacity="0"/>
</linearGradient>
<linearGradient id="paint3_linear" x1="307.999" y1="114.301" x2="311.349" y2="114.301" gradientUnits="userSpaceOnUse">
<stop stop-color="#F7941E"/>
<stop offset="1" stop-color="#F7941E" stop-opacity="0"/>
</linearGradient>
<linearGradient id="paint4_linear" x1="517.517" y1="430.965" x2="561.556" y2="430.965" gradientUnits="userSpaceOnUse">
<stop stop-color="#2484C6"/>
<stop offset="1" stop-color="#2484C6" stop-opacity="0"/>
</linearGradient>
<linearGradient id="paint5_linear" x1="571.087" y1="418.49" x2="632.203" y2="418.49" gradientUnits="userSpaceOnUse">
<stop stop-color="#2484C6"/>
<stop offset="1" stop-color="#2484C6" stop-opacity="0"/>
</linearGradient>
</defs>
</svg>
