<svg width="627" height="488" viewBox="0 0 627 488" fill="none" xmlns="http://www.w3.org/2000/svg">
<g clip-path="url(#clip0)">
<path d="M209.327 248.219C212.469 245.276 215.807 245.864 217.575 246.453C219.146 242.529 222.287 238.212 229.357 238.212C241.728 238.212 242.906 250.377 242.906 250.377C251.742 247.63 253.313 255.479 253.313 255.872H206.185C205.989 250.77 209.327 248.219 209.327 248.219Z" fill="white"/>
<path d="M446.931 270.588C449.288 270.588 451.448 271.177 453.215 272.354C456.75 266.271 463.23 261.954 470.888 261.954C477.957 261.954 484.045 265.486 487.776 271.177C489.739 264.505 495.63 259.796 502.896 259.796C510.947 259.796 517.624 266.075 518.409 274.12C518.998 273.924 519.784 273.924 520.373 273.924C525.282 273.924 529.602 276.867 531.762 280.988H434.56C435.738 274.905 440.844 270.588 446.931 270.588Z" fill="white"/>
<path d="M384.683 35.1235C388.37 35.1235 391.359 32.1366 391.359 28.452C391.359 24.7674 388.37 21.7805 384.683 21.7805C380.996 21.7805 378.006 24.7674 378.006 28.452C378.006 32.1366 380.996 35.1235 384.683 35.1235Z" fill="#EBF5FF"/>
<path d="M237.211 168.553C237.211 171.104 235.248 173.066 232.695 173.066C230.142 173.066 228.178 171.104 228.178 168.553C228.178 166.002 230.142 164.04 232.695 164.04C235.248 164.04 237.211 166.002 237.211 168.553Z" fill="#84B4FE"/>
<path d="M416.691 145.007L413.942 143.633C413.745 143.633 413.549 143.437 413.549 143.241L412.174 140.494C411.782 139.905 410.8 139.905 410.407 140.494L409.032 143.241C409.032 143.437 408.836 143.633 408.64 143.633L405.891 145.007C405.301 145.399 405.301 146.38 405.891 146.773L408.64 148.146C408.836 148.146 409.032 148.343 409.032 148.539L410.407 151.09C410.8 151.678 411.782 151.678 412.174 151.09L413.549 148.343C413.549 148.146 413.745 147.95 413.942 147.95L416.691 146.577C417.476 146.184 417.476 145.203 416.691 145.007Z" fill="#EBF5FF"/>
<path d="M258.223 54.9416L254.884 53.1757C254.688 52.9794 254.492 52.9794 254.295 52.587L252.528 49.2513C252.135 48.4664 250.761 48.4664 250.368 49.2513L248.601 52.587C248.404 52.7832 248.404 52.9794 248.011 53.1757L244.673 54.9416C243.888 55.3341 243.888 56.7076 244.673 57.1001L248.011 58.8661C248.208 59.0623 248.404 59.0623 248.601 59.4547L250.368 62.7905C250.761 63.5753 252.135 63.5753 252.528 62.7905L254.295 59.4547C254.492 59.2585 254.492 59.0623 254.884 58.8661L258.223 57.1001C259.008 56.7076 259.008 55.3341 258.223 54.9416Z" fill="#C1DDF7"/>
<path d="M493.47 123.03L489.347 120.872C489.15 120.676 488.954 120.479 488.758 120.283L486.597 116.163C486.008 115.181 484.634 115.181 484.045 116.163L481.885 120.283C481.688 120.479 481.492 120.676 481.296 120.872L477.172 123.03C476.19 123.619 476.19 124.993 477.172 125.581L481.296 127.74C481.492 127.936 481.688 128.132 481.885 128.328L484.045 132.449C484.634 133.43 486.008 133.43 486.597 132.449L488.758 128.328C488.954 128.132 489.15 127.936 489.347 127.74L493.47 125.581C494.452 124.993 494.452 123.619 493.47 123.03Z" fill="#C1DDF7"/>
<path d="M173.785 107.136L170.054 105.174C169.857 104.978 169.661 104.782 169.465 104.586L167.501 100.857C166.912 99.8763 165.537 99.8763 165.145 100.857L163.181 104.586C162.985 104.782 162.788 104.978 162.592 105.174L158.861 107.136C157.879 107.725 157.879 109.099 158.861 109.491L162.592 111.453C162.788 111.65 162.985 111.846 163.181 112.042L165.145 115.77C165.734 116.751 167.108 116.751 167.501 115.77L169.465 112.042C169.661 111.846 169.857 111.65 170.054 111.453L173.785 109.491C174.767 109.099 174.767 107.725 173.785 107.136Z" fill="#84B4FE"/>
<path d="M424.545 83.786L421.796 82.2162C421.6 82.2162 421.404 82.02 421.404 81.8238L419.833 79.0767C419.44 78.2918 418.458 78.2918 418.065 79.0767L416.494 81.8238C416.494 82.02 416.298 82.2162 416.102 82.2162L413.352 83.786C412.567 84.1784 412.567 85.1595 413.352 85.552L416.102 87.1217C416.298 87.1217 416.494 87.3179 416.494 87.5142L418.065 90.2613C418.458 91.0461 419.44 91.0461 419.833 90.2613L421.404 87.5142C421.404 87.3179 421.6 87.1217 421.796 87.1217L424.545 85.552C425.134 85.1595 425.134 84.1784 424.545 83.786Z" fill="#84B4FE"/>
<path d="M347.962 282.165H308.885V465.827H347.962V282.165Z" fill="white"/>
<path d="M343.446 292.565C343.446 284.716 336.966 278.24 329.111 278.24C321.257 278.24 314.776 284.716 314.776 292.565C314.776 292.565 313.009 326.315 329.111 344.367C345.213 326.315 343.446 292.565 343.446 292.565Z" fill="#EBF5FF"/>
<path d="M279.234 215.253C279.234 215.253 225.626 241.154 246.833 317.68C246.833 317.68 258.223 279.221 294.55 269.214L279.234 215.253Z" fill="#84B4FE"/>
<path d="M379.577 215.253C379.577 215.253 433.186 241.154 411.978 317.68C411.978 317.68 400.589 279.221 364.261 269.214L379.577 215.253Z" fill="#84B4FE"/>
<path d="M346.784 285.108H310.26C308.885 285.108 307.511 284.127 307.314 282.753L305.351 273.924C304.958 271.961 306.332 270.195 308.296 270.195H348.748C350.711 270.195 352.282 271.961 351.693 273.924L349.73 282.753C349.533 284.127 348.159 285.108 346.784 285.108Z" fill="#005E72"/>
<path d="M275.896 194.454C275.896 194.454 281.394 245.668 298.674 278.24C298.674 278.24 326.166 265.094 358.566 278.24C358.566 278.24 378.399 250.77 382.523 190.334C384.879 155.603 382.13 115.77 370.544 81.4314H290.034C279.43 109.491 271.772 146.969 275.896 194.454Z" fill="#C1DDF7"/>
<path d="M322.827 26.0972C314.776 35.3195 300.834 53.568 290.034 81.6275H370.544C363.082 59.6508 352.282 40.0288 336.769 25.3123C332.842 21.5841 326.558 21.9765 322.827 26.0972Z" fill="#005E72"/>
<path d="M327.933 192.099C327.933 192.099 303.191 248.218 327.933 314.933C327.933 314.933 355.424 259.207 327.933 192.099Z" fill="#84B4FE"/>
<path d="M330.289 170.908C347.424 170.908 361.315 157.027 361.315 139.905C361.315 122.783 347.424 108.902 330.289 108.902C313.154 108.902 299.263 122.783 299.263 139.905C299.263 157.027 313.154 170.908 330.289 170.908Z" fill="#005E72"/>
<path d="M351.249 144.836C353.978 133.231 346.775 121.613 335.161 118.887C323.548 116.161 311.922 123.358 309.193 134.963C306.465 146.568 313.668 158.185 325.281 160.912C336.895 163.638 348.521 156.44 351.249 144.836Z" fill="#FFD474"/>
<path d="M274.717 518.61C299.878 518.61 320.275 498.492 320.275 473.676C320.275 448.859 299.878 428.741 274.717 428.741C249.557 428.741 229.16 448.859 229.16 473.676C229.16 498.492 249.557 518.61 274.717 518.61Z" fill="white"/>
<path d="M414.138 513.901C436.696 513.901 454.982 495.892 454.982 473.676C454.982 451.46 436.696 433.451 414.138 433.451C391.58 433.451 373.294 451.46 373.294 473.676C373.294 495.892 391.58 513.901 414.138 513.901Z" fill="white"/>
<path d="M346.784 470.144C364.353 470.144 378.596 456.088 378.596 438.749C378.596 421.41 364.353 407.354 346.784 407.354C329.215 407.354 314.973 421.41 314.973 438.749C314.973 456.088 329.215 470.144 346.784 470.144Z" fill="white"/>
<path d="M288.659 441.692C300.914 441.692 310.849 431.853 310.849 419.715C310.849 407.578 300.914 397.739 288.659 397.739C276.404 397.739 266.47 407.578 266.47 419.715C266.47 431.853 276.404 441.692 288.659 441.692Z" fill="white"/>
<path d="M345.213 416.576C353.564 416.576 360.333 409.899 360.333 401.663C360.333 393.427 353.564 386.75 345.213 386.75C336.862 386.75 330.093 393.427 330.093 401.663C330.093 409.899 336.862 416.576 345.213 416.576Z" fill="white"/>
<path d="M318.311 465.042C333.169 465.042 345.213 453.182 345.213 438.552C345.213 423.923 333.169 412.063 318.311 412.063C303.453 412.063 291.409 423.923 291.409 438.552C291.409 453.182 303.453 465.042 318.311 465.042Z" fill="white"/>
<path d="M103.485 621.626C148.926 621.626 185.763 585.344 185.763 540.587C185.763 495.831 148.926 459.548 103.485 459.548C58.0445 459.548 21.2075 495.831 21.2075 540.587C21.2075 585.344 58.0445 621.626 103.485 621.626Z" fill="white"/>
<path d="M202.258 555.108C236.311 555.108 263.917 527.874 263.917 494.279C263.917 460.685 236.311 433.451 202.258 433.451C168.204 433.451 140.599 460.685 140.599 494.279C140.599 527.874 168.204 555.108 202.258 555.108Z" fill="white"/>
<path d="M503.878 621.43C552.03 621.43 591.065 582.951 591.065 535.485C591.065 488.02 552.03 449.541 503.878 449.541C455.726 449.541 416.691 488.02 416.691 535.485C416.691 582.951 455.726 621.43 503.878 621.43Z" fill="white"/>
<path d="M287.678 576.299C321.731 576.299 349.337 549.066 349.337 515.471C349.337 481.877 321.731 454.643 287.678 454.643C253.624 454.643 226.018 481.877 226.018 515.471C226.018 549.066 253.624 576.299 287.678 576.299Z" fill="white"/>
<path d="M361.904 576.103C400.187 576.103 431.222 545.531 431.222 507.818C431.222 470.106 400.187 439.534 361.904 439.534C323.621 439.534 292.587 470.106 292.587 507.818C292.587 545.531 323.621 576.103 361.904 576.103Z" fill="white"/>
</g>
<defs>
<clipPath id="clip0">
<rect width="627" height="488" fill="white"/>
</clipPath>
</defs>
</svg>
