<svg width="128" height="128" viewBox="0 0 128 128" fill="none" xmlns="http://www.w3.org/2000/svg">
<path d="M76.25 37C79.0115 37 81.25 34.7615 81.25 32V22.5C81.25 19.7385 79.0115 17.5 76.25 17.5C73.4885 17.5 71.25 19.7385 71.25 22.5V32C71.25 34.7615 73.4885 37 76.25 37Z" fill="white"/>
<path d="M123 88C125.761 88 128 85.7615 128 83V25.5C128 24.174 127.473 22.902 126.535 21.9645L106.035 1.4645C105.098 0.52675 103.826 0 102.5 0H20C8.972 0 0 8.972 0 20V108C0 119.028 8.972 128 20 128H108C119.028 128 128 119.028 128 108C128 105.239 125.761 103 123 103C120.239 103 118 105.239 118 108C118 113.514 113.514 118 108 118V78C108 75.2385 105.761 73 103 73H25C22.2385 73 20 75.2385 20 78V118C14.486 118 10 113.514 10 108V20C10 14.486 14.486 10 20 10V39.5C20 47.771 26.729 54.5 35 54.5H85.25C93.521 54.5 100.25 47.771 100.25 39.5V10H100.429L118 27.571V83C118 85.7615 120.239 88 123 88ZM30 83H98V118H30V83ZM90.25 39.5C90.25 42.257 88.007 44.5 85.25 44.5H35C32.243 44.5 30 42.257 30 39.5V10H90.25V39.5Z" fill="white"/>
</svg>
