<svg width="128" height="128" viewBox="0 0 128 128" fill="none" xmlns="http://www.w3.org/2000/svg">
<path d="M113 9H15C6.729 9 0 15.729 0 24V104C0 112.271 6.729 119 15 119H113C121.271 119 128 112.271 128 104V24C128 15.729 121.271 9 113 9ZM118 104C118 106.757 115.757 109 113 109H15C12.243 109 10 106.757 10 104V24C10 21.243 12.243 19 15 19H113C115.757 19 118 21.243 118 24V104Z" fill="white"/>
<path d="M75.75 26.5H25.75C22.9885 26.5 20.75 28.7385 20.75 31.5C20.75 34.2615 22.9885 36.5 25.75 36.5H75.75C78.5115 36.5 80.75 34.2615 80.75 31.5C80.75 28.7385 78.5115 26.5 75.75 26.5Z" fill="white"/>
<path d="M102.25 26.5H93.25C90.4885 26.5 88.25 28.7385 88.25 31.5C88.25 34.2615 90.4885 36.5 93.25 36.5H102.25C105.011 36.5 107.25 34.2615 107.25 31.5C107.25 28.7385 105.011 26.5 102.25 26.5Z" fill="white"/>
</svg>
